<?xml version="1.0" encoding="utf-8"?>
<!-- Generator: Adobe Illustrator 16.0.0, SVG Export Plug-In . SVG Version: 6.00 Build 0)  -->
<!DOCTYPE svg PUBLIC "-//W3C//DTD SVG 1.1//EN" "http://www.w3.org/Graphics/SVG/1.1/DTD/svg11.dtd">
<svg version="1.1" id="Layer_1" xmlns="http://www.w3.org/2000/svg" xmlns:xlink="http://www.w3.org/1999/xlink" x="0px" y="0px"
	 width="200px" height="200px" viewBox="0 0 200 200" enable-background="new 0 0 200 200" xml:space="preserve">
<g>
	<path d="M104.722,99.402c0,0,0.6-12.146-2.32-17.329c-2.928-5.182-8.426-9.232-14.279-8.339c-5.842,0.89-8.336,2.592-11.434,3.32
		c-3.09,0.73-5.932,2.505-15.215-3.442c-9.287-5.949-24.418-12.834-36.709-6.191c-12.3,6.638-13.76,22.023-13.934,27.932
		c-0.17,5.915,0,4.05,0,4.05s-0.344,17.496,6.108,26.48c6.445,8.988,22.177,11.825,31.47,7.283
		c9.284-4.531,18.739-11.091,20.803-11.332c2.064-0.244,7.218-0.403,9.455,0.809c2.24,1.217,9.033,5.024,13.073,2.348
		c4.039-2.668,1.545-6.641,1.545-6.641s-3.61-4.938-2.496-9.15c1.119-4.21,7.395-5.665,7.395-5.665l6.586-0.323L104.722,99.402z"/>
	<path fill="#FFFFFF" d="M35.686,110.6c-0.166,0-0.303-0.124-0.303-0.269V89.668c0-0.143,0.137-0.266,0.303-0.266h4.344
		c0.166,0,0.308,0.124,0.308,0.266v20.663c0,0.145-0.142,0.269-0.308,0.269H35.686z"/>
	<path d="M37.857,107.404c-0.169,0-0.299-0.136-0.299-0.299v-14.21c0-0.166,0.13-0.301,0.299-0.301l0,0
		c0.17,0,0.305,0.135,0.305,0.301v14.21C38.162,107.269,38.027,107.404,37.857,107.404L37.857,107.404z"/>
	<polygon points="163.961,96.439 73.837,95.464 73.837,99.997 73.837,104.539 163.961,103.561 	"/>
	<g>
		<g>
			<path fill="#FFFFFF" d="M158.718,103.784c-0.07,0-0.128-0.063-0.128-0.143v-7.282c0-0.08,0.058-0.147,0.128-0.147l0,0
				c0.063,0,0.118,0.067,0.118,0.147v7.282C158.836,103.721,158.781,103.784,158.718,103.784L158.718,103.784z"/>
			<path fill="#FFFFFF" d="M151.897,103.817c-0.065,0-0.12-0.067-0.12-0.146v-7.342c0-0.081,0.055-0.146,0.12-0.146l0,0
				c0.071,0,0.125,0.066,0.125,0.146v7.342C152.022,103.75,151.969,103.817,151.897,103.817L151.897,103.817z"/>
			<path fill="#FFFFFF" d="M139.2,103.829c-0.065,0-0.115-0.067-0.115-0.146v-7.369c0-0.078,0.05-0.144,0.115-0.144l0,0
				c0.065,0,0.115,0.066,0.115,0.144v7.369C139.315,103.762,139.266,103.829,139.2,103.829L139.2,103.829z"/>
			<path fill="#FFFFFF" d="M132.756,103.897c-0.065,0-0.115-0.065-0.115-0.147v-7.502c0-0.077,0.05-0.147,0.115-0.147l0,0
				c0.065,0,0.119,0.07,0.119,0.147v7.502C132.875,103.832,132.821,103.897,132.756,103.897L132.756,103.897z"/>
			<path fill="#FFFFFF" d="M145.745,103.781c-0.064,0-0.122-0.061-0.122-0.146v-7.272c0-0.084,0.058-0.151,0.122-0.151l0,0
				c0.069,0,0.12,0.067,0.12,0.151v7.272C145.865,103.721,145.814,103.781,145.745,103.781L145.745,103.781z"/>
			<path fill="#FFFFFF" d="M124.639,103.983c-0.068,0-0.127-0.063-0.127-0.148v-7.671c0-0.083,0.059-0.153,0.127-0.153l0,0
				c0.068,0,0.123,0.07,0.123,0.153v7.671C124.762,103.921,124.707,103.983,124.639,103.983L124.639,103.983z"/>
			<path fill="#FFFFFF" d="M117.819,104.061c-0.063,0-0.12-0.069-0.12-0.153v-7.813c0-0.088,0.058-0.154,0.12-0.154l0,0
				c0.068,0,0.126,0.066,0.126,0.154v7.813C117.945,103.991,117.888,104.061,117.819,104.061L117.819,104.061z"/>
			<path fill="#FFFFFF" d="M111.006,104.163c-0.064,0-0.119-0.073-0.119-0.161v-8.006c0-0.088,0.055-0.162,0.119-0.162l0,0
				c0.072,0,0.127,0.074,0.127,0.162v8.006C111.133,104.09,111.078,104.163,111.006,104.163L111.006,104.163z"/>
			<path fill="#FFFFFF" d="M105.722,104.189c-0.064,0-0.118-0.073-0.118-0.156v-8.065c0-0.087,0.054-0.158,0.118-0.158l0,0
				c0.073,0,0.123,0.071,0.123,0.158v8.065C105.845,104.116,105.795,104.189,105.722,104.189L105.722,104.189z"/>
			<path fill="#FFFFFF" d="M100.436,104.22c-0.064,0-0.122-0.07-0.122-0.162v-8.115c0-0.092,0.058-0.161,0.122-0.161l0,0
				c0.07,0,0.127,0.069,0.127,0.161v8.115C100.563,104.149,100.506,104.22,100.436,104.22L100.436,104.22z"/>
			<path fill="#FFFFFF" d="M95.844,104.3c-0.066,0-0.119-0.074-0.119-0.165v-8.27c0-0.09,0.053-0.166,0.119-0.166l0,0
				c0.067,0,0.122,0.076,0.122,0.166v8.27C95.966,104.226,95.912,104.3,95.844,104.3L95.844,104.3z"/>
			<path fill="#FFFFFF" d="M92.605,104.3c-0.071,0-0.126-0.074-0.126-0.165v-8.27c0-0.09,0.055-0.166,0.126-0.166l0,0
				c0.069,0,0.12,0.076,0.12,0.166v8.27C92.725,104.226,92.674,104.3,92.605,104.3L92.605,104.3z"/>
			<path fill="#FFFFFF" d="M89.204,104.339c-0.064,0-0.114-0.077-0.114-0.168v-8.342c0-0.091,0.05-0.164,0.114-0.164l0,0
				c0.073,0,0.127,0.073,0.127,0.164v8.342C89.331,104.262,89.277,104.339,89.204,104.339L89.204,104.339z"/>
			<path fill="#FFFFFF" d="M86.092,104.404c-0.068,0-0.125-0.075-0.125-0.164v-8.478c0-0.092,0.057-0.17,0.125-0.17l0,0
				c0.07,0,0.123,0.078,0.123,0.17v8.478C86.215,104.329,86.162,104.404,86.092,104.404L86.092,104.404z"/>
			<path fill="#FFFFFF" d="M82.699,104.534c-0.064,0-0.123-0.076-0.123-0.168v-8.729c0-0.095,0.059-0.173,0.123-0.173l0,0
				c0.068,0,0.123,0.078,0.123,0.173v8.729C82.822,104.458,82.768,104.534,82.699,104.534L82.699,104.534z"/>
			<path fill="#FFFFFF" d="M80.328,104.534c-0.068,0-0.12-0.076-0.12-0.168v-8.729c0-0.095,0.052-0.173,0.12-0.173l0,0
				c0.064,0,0.123,0.078,0.123,0.173v8.729C80.451,104.458,80.393,104.534,80.328,104.534L80.328,104.534z"/>
			<path fill="#FFFFFF" d="M78.139,104.534c-0.07,0-0.123-0.076-0.123-0.168v-8.729c0-0.095,0.053-0.173,0.123-0.173l0,0
				c0.068,0,0.123,0.078,0.123,0.173v8.729C78.261,104.458,78.207,104.534,78.139,104.534L78.139,104.534z"/>
		</g>
	</g>
	<rect x="163.74" y="96.289" fill="#A7A9AC" width="0.865" height="7.421"/>
	<g>
		<g>
			<g>
				<path d="M175.378,93.125c-0.914,0-1.651-0.345-1.651-0.771c0-0.425,0.737-0.767,1.651-0.767c0.91,0,1.646,0.341,1.646,0.767
					C177.023,92.78,176.288,93.125,175.378,93.125z"/>
				<path d="M175.378,108.413c-0.914,0-1.651-0.343-1.651-0.767c0-0.428,0.737-0.773,1.651-0.773c0.91,0,1.646,0.346,1.646,0.773
					C177.023,108.07,176.288,108.413,175.378,108.413z"/>
			</g>
			<rect x="174.413" y="92.692" width="1.93" height="14.617"/>
		</g>
		<g>
			<g>
				<ellipse cx="168.999" cy="93.183" rx="1.648" ry="0.771"/>
				<ellipse cx="168.999" cy="106.815" rx="1.648" ry="0.771"/>
			</g>
			<rect x="168.034" y="93.153" width="1.938" height="13.691"/>
		</g>
		<g>
			<g>
				<ellipse cx="181.755" cy="91.97" rx="1.652" ry="0.77"/>
				<path d="M181.755,108.802c-0.912,0-1.652-0.345-1.652-0.772c0-0.424,0.74-0.769,1.652-0.769c0.91,0,1.647,0.345,1.647,0.769
					C183.402,108.457,182.665,108.802,181.755,108.802z"/>
			</g>
			<rect x="180.785" y="92.353" width="1.935" height="15.293"/>
		</g>
	</g>
	<path d="M187.908,104.506c0.567-1.235,1.218-2.298,1.302-2.825c0.08-0.533,0-1.684,0-1.684s0.08-1.148,0-1.678
		c-0.084-0.528-0.734-1.593-1.302-2.828c-0.57-1.237-2.852-2.298-2.852-2.298s-13.361,1.061-15.563,1.239
		c-2.2,0.174-4.888,2.034-4.888,2.034v3.531v3.537c0,0,2.688,1.86,4.888,2.035c2.202,0.177,15.563,1.237,15.563,1.237
		S187.338,105.746,187.908,104.506z"/>
	<g>
		<g>
			<g>
				<path fill="#FFFFFF" d="M180.931,96.578c0,0.412,0.331,0.743,0.74,0.743c0.408,0,0.744-0.331,0.744-0.743
					c0-0.407-0.336-0.745-0.744-0.745C181.262,95.833,180.931,96.171,180.931,96.578z"/>
			</g>
			<g>
				<path fill="#FFFFFF" d="M175.588,97.321c0.409,0,0.741-0.331,0.741-0.743c0-0.407-0.332-0.745-0.741-0.745
					c-0.412,0-0.74,0.337-0.74,0.745C174.848,96.99,175.176,97.321,175.588,97.321z"/>
			</g>
			<g>
				<path fill="#FFFFFF" d="M169.827,97.226c0-0.41-0.334-0.742-0.742-0.742c-0.41,0-0.748,0.332-0.748,0.742
					c0,0.411,0.338,0.743,0.748,0.743C169.493,97.969,169.827,97.637,169.827,97.226z"/>
			</g>
			<g>
				<circle fill="#FFFFFF" cx="181.673" cy="103.422" r="0.742"/>
			</g>
			<g>
				<path fill="#FFFFFF" d="M176.329,103.422c0-0.411-0.332-0.742-0.741-0.742c-0.412,0-0.74,0.331-0.74,0.742
					c0,0.41,0.328,0.741,0.74,0.741C175.997,104.163,176.329,103.832,176.329,103.422z"/>
			</g>
			<g>
				<path fill="#FFFFFF" d="M169.827,102.771c0-0.407-0.334-0.743-0.742-0.743c-0.41,0-0.748,0.336-0.748,0.743
					c0,0.411,0.338,0.744,0.748,0.744C169.493,103.516,169.827,103.183,169.827,102.771z"/>
			</g>
		</g>
	</g>
	<g>
		<g>
			<path fill="#FFFFFF" d="M79.814,99.997c0-6.216-5.039-11.258-11.259-11.258c-6.216,0-11.253,5.042-11.253,11.258
				c0,6.222,5.037,11.263,11.253,11.263C74.775,111.26,79.814,106.219,79.814,99.997z M57.952,99.997
				c0-5.857,4.75-10.605,10.604-10.605c5.862,0,10.613,4.748,10.613,10.605c0,5.863-4.751,10.61-10.613,10.61
				C62.702,110.607,57.952,105.86,57.952,99.997z"/>
			<g>
				<path fill="#FFFFFF" d="M68.556,109.58c-5.284,0-9.573-4.286-9.573-9.583c0-5.288,4.29-9.574,9.573-9.574
					c5.293,0,9.583,4.286,9.583,9.574C78.139,105.294,73.849,109.58,68.556,109.58z"/>
			</g>
		</g>
	</g>
	<g>
		<rect x="37.86" y="100.612" fill="#FFFFFF" width="126.101" height="0.077"/>
		<rect x="37.86" y="101.918" fill="#FFFFFF" width="126.101" height="0.075"/>
		<rect x="37.86" y="103.222" fill="#FFFFFF" width="126.101" height="0.076"/>
		<rect x="37.86" y="96.698" fill="#FFFFFF" width="126.101" height="0.08"/>
		<rect x="37.86" y="98.004" fill="#FFFFFF" width="126.101" height="0.078"/>
		<rect x="37.86" y="99.31" fill="#FFFFFF" width="126.101" height="0.076"/>
	</g>
</g>
</svg>
