<?xml version="1.0" encoding="utf-8"?>
<!-- Generator: Adobe Illustrator 16.0.0, SVG Export Plug-In . SVG Version: 6.00 Build 0)  -->
<!DOCTYPE svg PUBLIC "-//W3C//DTD SVG 1.1//EN" "http://www.w3.org/Graphics/SVG/1.1/DTD/svg11.dtd">
<svg version="1.1" id="Layer_1" xmlns="http://www.w3.org/2000/svg" xmlns:xlink="http://www.w3.org/1999/xlink" x="0px" y="0px"
	 width="200px" height="200px" viewBox="0 0 200 200" enable-background="new 0 0 200 200" xml:space="preserve">
<path d="M8.809,58.118c8.463,0.925,16.935,1.847,25.399,2.773c0.331,0.032,0.654,0.128,0.981,0.176
	c3.023,0.375,3.002,0.375,2.55-2.718c-0.775-5.291-1.529-10.591-2.362-16.432c2.895,1.778,5.326,3.281,8.386,5.162
	c-1.7-14.038-5.921-27.152-6.363-41.101c10.962,10.389,21.698,20.878,36.37,26.167c0.166-2.858-0.747-5.463-0.25-8.292
	c3.717,1.348,7.343,2.656,11.249,4.063c-0.677-4.853-1.313-9.412-1.937-13.964c-0.239-0.587-0.367-1.112,0.573-1.083
	c2.535,2.851,4.93,5.83,7.63,8.516c7.612,7.564,9.388,7.164,16.858,1.227c3.299-2.616,5.305-6.333,7.803-9.606
	c1.242-1.616,2.388-3.295,4.167-4.765c-0.868,6.474-1.728,12.95-2.639,19.713c3.931-1.429,7.568-2.751,11.323-4.122
	c0.44,2.741-0.303,5.253-0.222,8.027c13.813-5.341,25.224-13.677,34.827-25.293c1.631,13.413,0.984,25.995-2.659,38.617
	c2.38-0.264,3.731-2.234,5.942-2.879c0.185,3.173-0.786,6.094-1.079,9.073c-0.25,2.55-0.661,5.092-1.22,7.589
	c-0.472,2.069,0.323,2.393,2.146,2.168c7.802-0.97,15.604-1.867,23.408-2.785c0.778-0.088,1.58-0.103,2.571,0.287
	c-2.969,2.333-5.894,4.695-8.897,6.972c-3.696,2.807-7.399,5.599-11.197,8.27c-3.357,2.355-4.496,5.577-4.775,9.563
	c-0.552,7.737,1.514,14.923,3.842,22.108c1.521,4.644,2.814,9.331,3.468,14.211c0.721,5.407-0.352,10.639-1.204,16.545
	c-4.703-6.127-9.28-11.558-17.091-13.077c1.059,4.121,2.072,8.081,3.19,12.401c-3.396-0.676-6.48-1.293-10.066-2.013
	c3.159,8.368,1.41,16.502,0.698,25.245c-2.167-3.071-4.006-5.688-5.856-8.273c-1.786-2.498-4.145-4.246-6.995-5.393
	c-1.16-0.47-2.101-0.456-1.999,0.978c0.303,4.069-2.615,5.709-5.479,7.134c-4.769,2.366-7.061,5.988-7.848,11.278
	c-0.955,6.458-2.879,12.747-4.173,19.155c-0.471,2.275-1.558,3.923-3.204,5.406c-7.597,6.804-20.91,6.437-28.169-0.778
	c-1.143-1.14-1.867-2.417-2.204-4.056c-1.792-8.316-3.703-16.628-5.529-24.937c-0.287-1.294-0.851-2.234-2.009-2.939
	c-2.402-1.47-4.657-3.203-7.08-4.629c-1.813-1.065-2.663-2.453-2.828-4.555c-0.229-2.807-0.926-3.094-3.431-1.727
	c-2.23,1.204-3.825,3.151-5.526,4.959c-1.854,1.969-3.64,3.989-5.672,6.245c-0.796-4.35-1.645-8.272-1.738-12.328
	c-0.088-4.086,0.777-8.002,2.206-12.116c-3.67,1.801-6.981,3.416-10.736,5.26c1.308-5.062,2.506-9.646,3.714-14.334
	c-8.614,1.131-12.674,7.686-17.203,13.857c-2.506-12.932-0.896-25.274,2.369-37.504c1.58-5.904,3.1-11.818,4.575-17.748
	c0.429-1.708-0.619-3.038-1.603-4.251c-2.905-3.582-6.575-6.296-10.392-8.809c-5.191-3.409-10.448-6.719-15.68-10.077
	C7.695,57.732,8.261,57.938,8.809,58.118z"/>
<line fill="none" stroke="#ED1C24" stroke-width="4" stroke-miterlimit="10" x1="8.554" y1="191.445" x2="191.445" y2="8.554"/>
</svg>
