<?xml version="1.0" encoding="utf-8"?>
<!-- Generator: Adobe Illustrator 16.0.0, SVG Export Plug-In . SVG Version: 6.00 Build 0)  -->
<!DOCTYPE svg PUBLIC "-//W3C//DTD SVG 1.1//EN" "http://www.w3.org/Graphics/SVG/1.1/DTD/svg11.dtd">
<svg version="1.1" id="Layer_1" xmlns="http://www.w3.org/2000/svg" xmlns:xlink="http://www.w3.org/1999/xlink" x="0px" y="0px"
	 width="200px" height="200px" viewBox="0 0 200 200" enable-background="new 0 0 200 200" xml:space="preserve">
<g>
	<g>
		<path d="M186.918,100c-1.393,1.524-2.279,2.824-2.822,4.193c-0.414,0.953-0.682,1.937-0.762,2.985
			c-0.048,0.524-0.027,1.068-0.01,1.628c0.016,0.559,0.07,1.138,0.169,1.743c0.111,0.688,0.802,1.189,1.543,1.102
			c0.739-0.086,1.252-0.743,1.146-1.455c-0.077-0.496-0.118-0.965-0.139-1.415c-0.036-0.451-0.039-0.881-0.009-1.294
			c0.06-0.828,0.25-1.593,0.577-2.333c0.303-0.654,0.649-1.305,1.151-1.994c0.501-0.689,1.139-1.418,1.944-2.24
			c0.304-0.318,0.596-0.623,0.878-0.92"/>
		<path d="M183.823,122.517c0.019-0.998,0.044-1.898,0.236-2.706c0.184-0.809,0.487-1.536,0.921-2.22
			c0.711-1.225,1.831-2.35,3.675-3.746c1.099-0.864,2.029-1.67,2.827-2.483c0.782-0.815,1.47-1.635,1.885-2.555
			c0.48-1.013,0.739-2.085,0.773-3.262c0.027-0.588-0.045-1.203-0.172-1.849c-0.126-0.646-0.309-1.322-0.551-2.033
			c-0.246-0.729-1.021-1.095-1.729-0.833c-0.712,0.263-1.086,1.037-0.839,1.746c0.773,2.131,0.728,3.613,0.083,4.969
			c-0.332,0.679-0.791,1.331-1.473,2.012c-0.682,0.682-1.528,1.399-2.538,2.209c-0.516,0.413-0.983,0.807-1.403,1.19
			c-0.424,0.383-0.839,0.749-1.193,1.115c-0.717,0.731-1.277,1.449-1.72,2.206c-0.13,0.223-0.247,0.446-0.358,0.678
			c-0.121,0.226-0.231,0.457-0.333,0.691c-0.202,0.473-0.361,0.961-0.481,1.473c-0.12,0.513-0.201,1.046-0.241,1.608
			c-0.047,0.56-0.094,1.135-0.083,1.748c0.006,0.694,0.615,1.289,1.36,1.312C183.216,123.811,183.822,123.233,183.823,122.517z"/>
		<path d="M186.908,125.518c1.873-1.157,3.37-2.245,4.303-3.682c0.622-0.936,1.059-1.955,1.242-3.119
			c0.155-1.169,0.099-2.475-0.164-3.949c-0.126-0.753-0.881-1.228-1.603-1.064c-0.717,0.163-1.223,0.875-1.078,1.61
			c0.205,1.104,0.268,2.027,0.181,2.831c-0.096,0.803-0.385,1.477-0.802,2.102c-0.423,0.627-1,1.199-1.742,1.786
			c-0.733,0.589-1.711,1.17-2.824,1.828c-0.364,0.213-0.707,0.423-1.03,0.626"/>
		<path d="M192.794,127.242c0,0,0.118-0.414,0.325-1.141c0.194-0.73,0.53-1.759,0.801-3.027c0.146-0.631,0.304-1.314,0.471-2.037
			c0.16-0.725,0.36-1.482,0.488-2.283c0.142-0.795,0.29-1.62,0.439-2.455c0.149-0.839,0.311-1.687,0.403-2.545
			c0.109-0.854,0.218-1.712,0.326-2.556c0.053-0.422,0.105-0.84,0.157-1.253c0.033-0.415,0.066-0.824,0.098-1.227
			c0.062-0.807,0.122-1.587,0.178-2.326c0.052-0.739,0.121-1.438,0.124-2.085c0.064-2.585,0.107-4.308,0.107-4.308h1.811
			c0,0-0.044,1.755-0.108,4.388c-0.004,0.659-0.072,1.37-0.126,2.122c-0.059,0.755-0.118,1.547-0.183,2.37
			c-0.031,0.41-0.065,0.827-0.1,1.25c-0.053,0.42-0.106,0.847-0.159,1.275c-0.109,0.859-0.221,1.731-0.331,2.604
			c-0.096,0.874-0.26,1.738-0.411,2.591c-0.152,0.854-0.304,1.691-0.449,2.503c-0.13,0.815-0.333,1.588-0.497,2.325
			c-0.17,0.737-0.331,1.434-0.479,2.077c-0.275,1.291-0.617,2.34-0.815,3.082c-0.21,0.742-0.33,1.166-0.33,1.166L192.794,127.242z"
			/>
		<path d="M177.668,122.809c0,0,0.1-0.348,0.271-0.955c0.162-0.611,0.452-1.468,0.67-2.528c0.122-0.528,0.255-1.1,0.394-1.704
			c0.134-0.606,0.308-1.237,0.41-1.908c0.118-0.667,0.241-1.354,0.365-2.056c0.126-0.698,0.266-1.408,0.34-2.128
			c0.091-0.717,0.182-1.435,0.271-2.14c0.045-0.353,0.09-0.702,0.135-1.048c0.026-0.348,0.053-0.69,0.079-1.029
			c0.051-0.675,0.1-1.329,0.147-1.948c0.045-0.62,0.107-1.204,0.106-1.747c0.057-2.171,0.092-3.617,0.092-3.617h-1.812
			c0,0-0.036,1.414-0.09,3.537c0.002,0.53-0.06,1.104-0.104,1.708c-0.046,0.606-0.094,1.246-0.143,1.905
			c-0.026,0.331-0.052,0.668-0.079,1.007c-0.043,0.338-0.088,0.68-0.133,1.025c-0.087,0.689-0.176,1.391-0.265,2.09
			c-0.071,0.704-0.209,1.398-0.331,2.082c-0.122,0.685-0.242,1.357-0.358,2.01c-0.099,0.654-0.271,1.271-0.401,1.864
			c-0.136,0.591-0.265,1.149-0.383,1.665c-0.213,1.038-0.497,1.875-0.655,2.472c-0.169,0.596-0.265,0.933-0.265,0.933
			L177.668,122.809z"/>
	</g>
	<g>
		<path d="M183.397,124.488c-1.686,1.095-2.971,2.07-3.887,3.226c-0.327,0.4-0.597,0.826-0.859,1.266
			c-0.269,0.437-0.501,0.897-0.696,1.386c-0.404,0.972-0.599,2.08-0.792,3.28c-0.097,0.687,0.421,1.361,1.157,1.488
			c0.736,0.129,1.422-0.354,1.527-1.062c0.128-0.999,0.302-1.879,0.609-2.649c0.291-0.776,0.734-1.439,1.218-2.071
			c0.865-1.114,2.188-2.056,4.168-3.186c0.37-0.225,0.727-0.438,1.073-0.646"/>
		<path d="M174.09,145.216c0.267-0.97,0.569-1.813,0.985-2.532c0.4-0.726,0.936-1.317,1.5-1.873c0.517-0.485,1.127-0.919,1.88-1.329
			c0.746-0.415,1.671-0.79,2.707-1.221c2.575-1.05,4.603-1.98,5.947-3.498c0.748-0.835,1.35-1.774,1.676-2.908
			c0.327-1.133,0.467-2.431,0.424-3.927c-0.038-0.772-0.701-1.348-1.442-1.292c-0.375,0.025-0.696,0.203-0.925,0.465
			c-0.239,0.259-0.38,0.603-0.367,0.975c0.079,2.246-0.281,3.69-1.33,4.794c-1.029,1.106-2.599,1.949-5.046,2.909
			c-1.236,0.494-2.243,0.979-3.129,1.483c-0.903,0.492-1.649,1.02-2.295,1.614c-0.381,0.351-0.718,0.729-1.031,1.13
			c-0.331,0.394-0.626,0.815-0.892,1.27c-0.265,0.455-0.496,0.943-0.698,1.467c-0.103,0.263-0.193,0.536-0.285,0.813
			c-0.098,0.275-0.189,0.558-0.275,0.851c-0.193,0.668,0.219,1.408,0.93,1.639C173.131,146.281,173.881,145.903,174.09,145.216z"/>
		<path d="M176.186,148.961c1.069-0.285,2.035-0.586,2.906-0.948c0.847-0.377,1.595-0.817,2.264-1.363
			c1.781-1.407,2.713-3.486,3.042-6.469c0.06-0.773-0.504-1.431-1.251-1.483c-0.756-0.056-1.371,0.518-1.467,1.25
			c-0.124,1.113-0.333,2.013-0.651,2.756c-0.158,0.37-0.34,0.705-0.563,1.003c-0.23,0.294-0.491,0.555-0.784,0.795
			c-0.588,0.477-1.309,0.86-2.192,1.209c-0.442,0.176-0.919,0.344-1.451,0.502c-0.543,0.154-1.129,0.306-1.763,0.46
			c-0.409,0.101-0.801,0.201-1.171,0.305"/>
		<path d="M181.344,152.282c0,0,0.233-0.362,0.641-1c0.203-0.317,0.449-0.705,0.733-1.146c0.262-0.456,0.558-0.971,0.881-1.532
			c0.639-1.126,1.429-2.416,2.141-3.871c0.739-1.44,1.545-2.968,2.229-4.557c0.354-0.786,0.709-1.573,1.06-2.348
			c0.329-0.784,0.626-1.566,0.927-2.318c0.295-0.754,0.582-1.482,0.854-2.174c0.24-0.701,0.467-1.365,0.676-1.978
			c0.409-1.23,0.776-2.246,0.984-2.973c0.207-0.727,0.325-1.144,0.325-1.144l1.739,0.512c0,0-0.121,0.422-0.333,1.162
			c-0.211,0.741-0.585,1.774-1.001,3.029c-0.215,0.624-0.445,1.301-0.691,2.016c-0.276,0.704-0.567,1.446-0.869,2.213
			c-0.308,0.768-0.609,1.564-0.944,2.363c-0.356,0.788-0.718,1.592-1.079,2.394c-0.696,1.617-1.518,3.173-2.271,4.641
			c-0.726,1.482-1.53,2.797-2.18,3.944c-0.329,0.572-0.632,1.095-0.899,1.56c-0.287,0.451-0.539,0.846-0.746,1.169
			c-0.414,0.647-0.651,1.02-0.651,1.02L181.344,152.282z"/>
		<path d="M168.091,143.748c0,0,0.195-0.304,0.537-0.836c0.17-0.267,0.378-0.589,0.615-0.959c0.22-0.382,0.467-0.813,0.735-1.283
			c0.532-0.945,1.201-2.02,1.79-3.239c0.616-1.205,1.299-2.481,1.863-3.811c0.299-0.657,0.597-1.316,0.89-1.963
			c0.275-0.656,0.519-1.312,0.771-1.939c0.25-0.629,0.491-1.237,0.719-1.814c0.2-0.588,0.388-1.144,0.562-1.656
			c0.341-1.028,0.654-1.874,0.825-2.483c0.172-0.607,0.271-0.955,0.271-0.955l-1.738-0.511c0,0-0.097,0.34-0.265,0.936
			c-0.165,0.595-0.476,1.422-0.807,2.428c-0.17,0.5-0.354,1.043-0.548,1.618c-0.224,0.563-0.459,1.158-0.702,1.772
			c-0.247,0.614-0.484,1.256-0.753,1.896c-0.287,0.632-0.578,1.274-0.87,1.918c-0.553,1.301-1.22,2.546-1.821,3.725
			c-0.576,1.194-1.232,2.243-1.752,3.166c-0.262,0.46-0.503,0.882-0.717,1.254c-0.234,0.364-0.437,0.679-0.603,0.939
			c-0.334,0.52-0.525,0.816-0.525,0.816L168.091,143.748z"/>
	</g>
	<g>
		<path d="M173.111,146.98c-0.988,0.272-1.813,0.577-2.584,0.9c-0.773,0.317-1.446,0.677-2.058,1.096
			c-0.426,0.292-0.818,0.615-1.182,0.973c-0.365,0.354-0.732,0.721-1.057,1.137c-0.327,0.413-0.626,0.861-0.901,1.351
			c-0.278,0.488-0.521,1.027-0.784,1.575c-0.287,0.632,0.019,1.423,0.69,1.754c0.668,0.329,1.467,0.064,1.767-0.588
			c0.386-0.938,0.82-1.718,1.331-2.371s1.101-1.181,1.745-1.65c0.579-0.405,1.248-0.747,2.054-1.046
			c0.403-0.15,0.84-0.291,1.319-0.423c0.475-0.136,0.971-0.277,1.524-0.41c0.42-0.108,0.823-0.211,1.217-0.312"/>
		<path d="M158.34,164.257c0.518-0.872,1.057-1.583,1.656-2.158c0.599-0.575,1.26-1.008,1.964-1.38
			c0.632-0.32,1.342-0.563,2.181-0.744c0.844-0.178,1.816-0.296,2.937-0.414c1.389-0.135,2.628-0.288,3.747-0.534
			c1.12-0.242,2.063-0.624,2.945-1.142c1.964-1.138,3.187-3.06,3.939-5.962c0.173-0.757-0.288-1.491-1.02-1.65
			c-0.741-0.163-1.431,0.314-1.634,1.026c-0.283,1.082-0.62,1.943-1.04,2.632c-0.212,0.346-0.438,0.649-0.701,0.912
			c-0.271,0.257-0.566,0.479-0.892,0.672c-0.648,0.389-1.419,0.664-2.342,0.883c-0.464,0.107-0.958,0.208-1.511,0.287
			c-0.558,0.074-1.16,0.139-1.81,0.201c-1.324,0.125-2.442,0.295-3.42,0.541c-1.002,0.223-1.873,0.513-2.661,0.904
			c-0.463,0.228-0.899,0.492-1.31,0.794c-0.416,0.294-0.829,0.607-1.208,0.972c-0.383,0.361-0.744,0.763-1.087,1.208
			c-0.342,0.445-0.663,0.939-1,1.446c-0.374,0.583-0.187,1.41,0.43,1.831C157.119,165.007,157.947,164.854,158.34,164.257z"/>
		<path d="M159.3,168.435c1.104,0.024,2.126,0.019,3.053-0.097c0.916-0.126,1.761-0.336,2.557-0.67
			c1.044-0.435,1.962-1.055,2.722-1.959c0.386-0.443,0.747-0.943,1.085-1.506c0.335-0.563,0.662-1.173,0.925-1.89
			c0.276-0.724-0.078-1.512-0.781-1.773c-0.707-0.265-1.471,0.102-1.754,0.792c-1.725,4.139-3.807,4.554-8.996,4.371
			c-0.423-0.02-0.827-0.031-1.21-0.036"/>
		<path d="M163.319,173.07c0,0,0.326-0.284,0.896-0.777c0.281-0.252,0.64-0.54,1.02-0.902c0.38-0.363,0.81-0.772,1.279-1.218
			c0.467-0.447,0.975-0.931,1.512-1.443c0.542-0.504,1.062-1.093,1.626-1.669c0.557-0.587,1.134-1.191,1.72-1.807
			c0.578-0.624,1.129-1.288,1.698-1.936c0.562-0.655,1.136-1.299,1.678-1.953c0.525-0.668,1.041-1.325,1.543-1.961
			c0.493-0.642,0.994-1.242,1.425-1.845c0.43-0.605,0.838-1.177,1.213-1.703c0.751-1.055,1.381-1.93,1.773-2.574
			c0.408-0.637,0.642-1,0.642-1l1.523,0.981c0,0-0.237,0.37-0.654,1.017c-0.399,0.658-1.042,1.55-1.808,2.625
			c-0.382,0.535-0.796,1.117-1.234,1.732s-0.948,1.228-1.453,1.881c-0.509,0.647-1.037,1.316-1.57,1.996
			c-0.553,0.667-1.137,1.323-1.71,1.989c-0.579,0.661-1.141,1.339-1.728,1.972c-0.598,0.628-1.184,1.243-1.753,1.841
			c-0.576,0.589-1.104,1.188-1.658,1.7c-0.545,0.521-1.062,1.016-1.538,1.471c-0.479,0.453-0.915,0.869-1.304,1.239
			c-0.387,0.37-0.751,0.663-1.038,0.918c-0.581,0.505-0.913,0.794-0.913,0.794L163.319,173.07z"/>
		<path d="M152.992,161.161c0,0,0.272-0.238,0.75-0.649c0.237-0.213,0.539-0.449,0.856-0.756c0.318-0.305,0.677-0.647,1.069-1.022
			c0.393-0.374,0.818-0.779,1.268-1.206c0.459-0.42,0.887-0.918,1.361-1.4c0.469-0.492,0.953-0.998,1.444-1.513
			c0.484-0.521,0.942-1.081,1.42-1.624c0.471-0.549,0.954-1.086,1.408-1.635c0.439-0.559,0.871-1.11,1.29-1.644
			c0.412-0.535,0.837-1.036,1.196-1.545c0.359-0.507,0.698-0.985,1.013-1.426c0.629-0.884,1.162-1.612,1.487-2.157
			c0.339-0.532,0.535-0.836,0.535-0.836l-1.523-0.981c0,0-0.19,0.299-0.523,0.818c-0.317,0.531-0.838,1.245-1.454,2.107
			c-0.307,0.432-0.639,0.9-0.989,1.396c-0.351,0.495-0.768,0.984-1.171,1.511c-0.408,0.521-0.831,1.06-1.261,1.605
			c-0.442,0.537-0.916,1.062-1.376,1.599c-0.468,0.53-0.915,1.078-1.389,1.588c-0.481,0.502-0.953,0.998-1.412,1.477
			c-0.463,0.474-0.882,0.962-1.33,1.369c-0.439,0.422-0.855,0.816-1.241,1.182c-0.382,0.367-0.733,0.702-1.044,1.001
			c-0.31,0.299-0.607,0.53-0.838,0.736c-0.468,0.404-0.735,0.636-0.735,0.636L152.992,161.161z"/>
	</g>
	<g>
		<path d="M156.902,165.672c-1.021-0.014-1.912,0.034-2.727,0.144c-0.834,0.087-1.583,0.24-2.288,0.47
			c-1.942,0.673-3.628,1.818-5.175,3.739c-0.454,0.522-0.383,1.367,0.17,1.873c0.548,0.501,1.397,0.482,1.857-0.075
			c0.634-0.789,1.27-1.414,1.944-1.896c0.337-0.242,0.684-0.449,1.044-0.623c0.349-0.189,0.711-0.348,1.092-0.475
			c0.671-0.227,1.409-0.365,2.268-0.427c0.43-0.031,0.892-0.035,1.385-0.035c0.485-0.008,1.009,0.004,1.575,0.031
			c0.436,0.016,0.852,0.03,1.258,0.043"/>
		<path d="M137.879,178.103c0.741-0.69,1.459-1.216,2.197-1.599c0.368-0.19,0.741-0.344,1.122-0.466
			c0.373-0.136,0.753-0.239,1.147-0.312c0.697-0.127,1.447-0.158,2.306-0.095c0.428,0.032,0.888,0.091,1.375,0.165
			c0.481,0.062,0.998,0.148,1.557,0.257c1.372,0.263,2.606,0.462,3.75,0.543c1.134,0.065,2.153-0.021,3.146-0.273
			c1.093-0.283,2.094-0.764,2.974-1.55c0.885-0.779,1.734-1.757,2.477-3.072c0.379-0.678,0.142-1.509-0.517-1.868
			c-0.664-0.363-1.468-0.106-1.851,0.532c-2.299,3.851-4.422,3.963-9.529,3.035c-1.309-0.255-2.431-0.404-3.439-0.445
			c-1.013-0.05-1.94-0.032-2.804,0.124c-2.021,0.387-3.853,1.271-5.656,2.95c-0.525,0.451-0.577,1.297-0.104,1.877
			C136.498,178.481,137.345,178.59,137.879,178.103z"/>
		<path d="M137.626,182.388c1.051,0.331,2.043,0.634,2.954,0.761c0.915,0.138,1.785,0.177,2.647,0.081
			c0.562-0.062,1.105-0.179,1.637-0.353c0.521-0.19,1.024-0.45,1.522-0.766c0.497-0.316,0.985-0.695,1.469-1.137
			c0.241-0.223,0.48-0.46,0.721-0.714c0.234-0.261,0.463-0.549,0.694-0.848c0.469-0.616,0.351-1.471-0.251-1.92
			c-0.604-0.449-1.446-0.327-1.901,0.275c-1.423,1.718-2.639,2.584-4.14,2.754c-0.755,0.081-1.571,0.012-2.506-0.174
			c-0.936-0.191-1.974-0.469-3.219-0.914c-0.4-0.14-0.785-0.266-1.152-0.381"/>
		<path d="M140.179,187.967c0,0,0.393-0.179,1.081-0.49c0.696-0.293,1.645-0.81,2.801-1.394c0.577-0.295,1.201-0.616,1.861-0.954
			c0.651-0.353,1.324-0.754,2.028-1.153c0.701-0.404,1.426-0.822,2.161-1.246c0.718-0.457,1.445-0.922,2.172-1.386
			c0.722-0.475,1.464-0.917,2.155-1.41c0.693-0.491,1.375-0.977,2.034-1.444c1.336-0.914,2.507-1.868,3.526-2.667
			c0.509-0.4,0.975-0.768,1.388-1.091c0.408-0.333,0.748-0.642,1.035-0.886c0.571-0.493,0.897-0.775,0.897-0.775l1.187,1.368
			c0,0-0.332,0.287-0.913,0.79c-0.293,0.248-0.64,0.563-1.056,0.899c-0.422,0.332-0.896,0.706-1.412,1.114
			c-1.04,0.813-2.233,1.783-3.594,2.717c-0.672,0.477-1.366,0.971-2.071,1.472s-1.461,0.954-2.197,1.435
			c-0.741,0.474-1.479,0.946-2.21,1.413c-0.751,0.432-1.488,0.857-2.204,1.27c-0.715,0.406-1.401,0.815-2.066,1.174
			c-0.673,0.344-1.308,0.672-1.895,0.972c-1.178,0.596-2.146,1.12-2.855,1.421c-0.701,0.316-1.103,0.499-1.103,0.499
			L140.179,187.967z"/>
		<path d="M133.62,173.632c0,0,0.329-0.148,0.905-0.408c0.585-0.241,1.375-0.681,2.343-1.168c0.482-0.245,1.006-0.513,1.558-0.795
			c0.548-0.295,1.107-0.633,1.696-0.968c0.588-0.338,1.195-0.685,1.811-1.038c0.6-0.385,1.208-0.774,1.815-1.165
			c0.604-0.397,1.229-0.764,1.807-1.178c0.58-0.411,1.15-0.817,1.702-1.211c1.122-0.762,2.099-1.566,2.953-2.233
			c0.428-0.335,0.818-0.642,1.164-0.914c0.343-0.276,0.625-0.537,0.866-0.742c0.479-0.414,0.752-0.65,0.752-0.65l-1.188-1.369
			c0,0-0.266,0.231-0.733,0.639c-0.235,0.197-0.512,0.454-0.846,0.725c-0.34,0.266-0.722,0.565-1.139,0.893
			c-0.836,0.652-1.791,1.439-2.889,2.184c-0.54,0.385-1.097,0.782-1.663,1.186c-0.565,0.405-1.177,0.762-1.767,1.149
			c-0.594,0.381-1.189,0.764-1.773,1.14c-0.604,0.345-1.197,0.686-1.771,1.015c-0.577,0.327-1.125,0.658-1.658,0.945
			c-0.541,0.276-1.052,0.537-1.524,0.778c-0.945,0.476-1.718,0.906-2.289,1.142c-0.563,0.254-0.885,0.397-0.885,0.397
			L133.62,173.632z"/>
	</g>
	<g>
		<path d="M136.104,179.061c-0.977-0.302-1.849-0.513-2.659-0.636c-0.813-0.128-1.585-0.213-2.323-0.189
			c-0.518,0.014-1.024,0.07-1.524,0.171c-0.497,0.106-0.991,0.247-1.493,0.404c-0.999,0.333-1.986,0.847-2.997,1.555
			c-0.582,0.378-0.755,1.199-0.368,1.845c0.385,0.642,1.205,0.862,1.797,0.439c1.663-1.155,3.168-1.627,4.761-1.716
			c1.419-0.056,3.001,0.343,5.139,1.062c0.413,0.14,0.809,0.272,1.194,0.4"/>
		<path d="M114.343,185.589c0.907-0.444,1.748-0.736,2.564-0.885c0.818-0.141,1.595-0.222,2.393-0.119
			c0.707,0.081,1.436,0.269,2.241,0.579c0.808,0.316,1.676,0.682,2.69,1.219c1.242,0.641,2.377,1.205,3.444,1.587
			c1.063,0.365,2.072,0.59,3.097,0.628c0.565,0.021,1.123-0.013,1.673-0.112c0.543-0.118,1.081-0.298,1.619-0.539
			c0.537-0.241,1.076-0.544,1.618-0.912c0.271-0.184,0.543-0.383,0.815-0.599c0.269-0.229,0.538-0.479,0.809-0.741
			c0.558-0.54,0.563-1.404,0.033-1.935c-0.532-0.531-1.386-0.534-1.922-0.004c-1.657,1.499-2.988,2.169-4.496,2.129
			c-0.759-0.03-1.556-0.218-2.452-0.539c-0.449-0.16-0.923-0.354-1.428-0.577c-0.502-0.216-1.044-0.482-1.626-0.792
			c-2.37-1.252-4.133-1.829-5.897-2.084c-1.03-0.136-2.033-0.055-3.066,0.135c-1.037,0.181-2.09,0.542-3.193,1.093
			c-0.625,0.322-0.921,1.08-0.63,1.782C112.918,185.607,113.694,185.907,114.343,185.589z"/>
		<path d="M112.889,189.648c0.92,0.65,1.772,1.147,2.612,1.545c0.842,0.4,1.667,0.691,2.519,0.849
			c1.122,0.234,2.21,0.118,3.35-0.186c0.565-0.159,1.143-0.38,1.732-0.663c0.592-0.274,1.181-0.679,1.795-1.112
			c0.628-0.453,0.757-1.305,0.306-1.906c-0.452-0.602-1.299-0.73-1.905-0.284c-1.839,1.299-3.271,1.692-4.745,1.487
			c-1.491-0.269-3.063-1.212-5.181-2.658c-0.346-0.249-0.68-0.482-0.999-0.699"/>
		<path d="M113.755,195.722c0,0,0.107-0.015,0.307-0.04c0.2-0.031,0.497-0.054,0.869-0.122c0.743-0.132,1.805-0.32,3.081-0.548
			c1.28-0.201,2.75-0.559,4.328-0.923c0.785-0.193,1.61-0.344,2.424-0.592c0.818-0.232,1.649-0.468,2.481-0.703
			c3.319-0.958,6.57-2.139,8.968-3.119c0.601-0.241,1.158-0.447,1.641-0.66c0.479-0.216,0.897-0.403,1.241-0.559
			c0.689-0.312,1.084-0.489,1.084-0.489l0.751,1.646c0,0-0.398,0.182-1.102,0.498c-0.351,0.159-0.777,0.35-1.266,0.57
			c-0.49,0.218-1.059,0.427-1.671,0.673c-2.443,0.997-5.757,2.2-9.139,3.177c-0.847,0.24-1.692,0.481-2.526,0.716
			c-0.828,0.254-1.67,0.407-2.47,0.604c-1.608,0.372-3.106,0.735-4.41,0.939c-1.299,0.232-2.382,0.425-3.138,0.559
			c-0.381,0.07-0.682,0.095-0.885,0.124c-0.205,0.027-0.314,0.041-0.314,0.041L113.755,195.722z"/>
		<path d="M111.53,180.115c0,0,0.09-0.011,0.258-0.032c0.167-0.025,0.417-0.043,0.727-0.101c0.622-0.11,1.511-0.271,2.576-0.461
			c1.073-0.163,2.299-0.47,3.62-0.771c0.655-0.164,1.348-0.28,2.026-0.493c0.685-0.194,1.378-0.392,2.072-0.591
			c2.774-0.799,5.493-1.786,7.496-2.604c0.503-0.202,0.971-0.371,1.373-0.55c0.399-0.183,0.75-0.341,1.038-0.472
			c0.574-0.26,0.903-0.408,0.903-0.408l-0.753-1.648c0,0-0.322,0.146-0.885,0.4c-0.28,0.128-0.623,0.283-1.014,0.461
			c-0.394,0.175-0.851,0.339-1.341,0.537c-1.96,0.8-4.616,1.766-7.327,2.547c-0.68,0.193-1.358,0.385-2.026,0.575
			c-0.663,0.21-1.339,0.323-1.982,0.483c-1.289,0.296-2.488,0.596-3.536,0.753c-1.042,0.188-1.91,0.344-2.519,0.452
			c-0.304,0.058-0.548,0.072-0.71,0.099c-0.165,0.021-0.252,0.031-0.252,0.031L111.53,180.115z"/>
	</g>
	<g>
		<path d="M112.373,186.026c-0.853-0.575-1.631-1.033-2.375-1.388s-1.453-0.598-2.173-0.813c-1.001-0.28-2.01-0.384-3.06-0.307
			c-1.051,0.068-2.147,0.231-3.319,0.618c-0.665,0.214-1.063,0.974-0.872,1.691c0.188,0.719,0.912,1.127,1.601,0.913
			c0.961-0.311,1.837-0.442,2.665-0.506c0.828-0.067,1.61,0.006,2.39,0.218c0.687,0.176,1.387,0.5,2.138,0.886
			c0.752,0.392,1.563,0.914,2.489,1.586c0.357,0.253,0.699,0.496,1.034,0.73"/>
		<path d="M89.644,186.152c0.496-0.076,0.966-0.121,1.415-0.134c0.45-0.026,0.881-0.038,1.295-0.006
			c0.827,0.06,1.591,0.25,2.33,0.577c0.654,0.302,1.303,0.664,1.99,1.16c0.688,0.5,1.417,1.139,2.239,1.944
			c1.011,1.007,1.939,1.801,2.856,2.466c0.916,0.662,1.821,1.177,2.793,1.515c1.072,0.349,2.168,0.425,3.336,0.286
			c0.585-0.075,1.188-0.199,1.81-0.398c0.622-0.222,1.266-0.506,1.937-0.851c0.688-0.354,0.938-1.176,0.579-1.838
			c-0.359-0.663-1.179-0.917-1.844-0.566c-4.019,2.011-5.859,0.936-9.652-2.597c-0.48-0.434-0.937-0.843-1.377-1.241
			c-0.438-0.382-0.861-0.72-1.274-1.021c-0.825-0.6-1.617-1.042-2.43-1.366c-1.899-0.88-3.938-0.956-6.354-0.617
			c-0.687,0.111-1.188,0.8-1.103,1.542C88.273,185.745,88.932,186.259,89.644,186.152z"/>
		<path d="M87.111,189.648c0.707,0.841,1.385,1.583,2.078,2.215c0.693,0.635,1.401,1.164,2.18,1.517
			c1.014,0.482,2.087,0.742,3.263,0.774c1.176,0.026,2.459-0.258,3.882-0.729c0.728-0.248,1.09-1.023,0.827-1.732
			c-0.264-0.709-1.039-1.083-1.747-0.836c-1.063,0.358-1.969,0.593-2.774,0.582c-0.806-0.003-1.515-0.167-2.194-0.492
			c-0.679-0.327-1.331-0.799-2.016-1.463c-0.683-0.683-1.402-1.528-2.213-2.539c-0.264-0.327-0.52-0.635-0.768-0.924"/>
		<path d="M86.246,195.722c0,0,0.428,0.054,1.177,0.149c0.75,0.088,1.818,0.25,3.106,0.372c1.29,0.1,2.795,0.213,4.408,0.335
			c1.616,0.043,3.34,0.088,5.063,0.134c1.723-0.046,3.446-0.091,5.063-0.134c1.612-0.122,3.118-0.235,4.408-0.335
			c1.288-0.122,2.357-0.284,3.105-0.372c0.749-0.096,1.178-0.149,1.178-0.149l0.255,1.793c0,0-0.436,0.056-1.198,0.154
			c-0.765,0.088-1.853,0.254-3.165,0.378c-1.313,0.101-2.848,0.215-4.49,0.34c-1.646,0.045-3.401,0.09-5.155,0.137
			c-1.756-0.047-3.511-0.092-5.156-0.137c-1.644-0.125-3.177-0.239-4.491-0.34c-1.312-0.124-2.399-0.29-3.164-0.378
			c-0.763-0.099-1.199-0.154-1.199-0.154L86.246,195.722z"/>
		<path d="M88.471,180.115c0,0,0.357,0.045,0.985,0.125c0.628,0.071,1.521,0.213,2.6,0.314c1.081,0.082,2.344,0.178,3.694,0.281
			c1.356,0.035,2.804,0.074,4.251,0.113c1.446-0.039,2.893-0.078,4.249-0.113c1.352-0.104,2.612-0.199,3.694-0.281
			c1.078-0.102,1.972-0.243,2.601-0.314c0.628-0.08,0.985-0.125,0.985-0.125l-0.255-1.793c0,0-0.351,0.044-0.965,0.121
			c-0.614,0.069-1.486,0.208-2.542,0.309c-1.058,0.08-2.291,0.174-3.612,0.275c-1.326,0.035-2.741,0.072-4.155,0.109
			c-1.415-0.037-2.83-0.074-4.157-0.109c-1.321-0.102-2.555-0.195-3.612-0.275c-1.055-0.101-1.928-0.239-2.542-0.309
			c-0.613-0.077-0.964-0.121-0.964-0.121L88.471,180.115z"/>
	</g>
	<g>
		<path d="M87.628,186.026c-0.664-0.751-1.278-1.431-1.892-1.995c-0.612-0.563-1.222-1.02-1.858-1.39
			c-0.894-0.494-1.819-0.937-2.846-1.166c-1.024-0.238-2.142-0.306-3.359-0.317c-0.694,0.006-1.287,0.617-1.308,1.364
			c-0.022,0.745,0.555,1.352,1.271,1.352c0.251,0,0.494,0.006,0.73,0.018c0.238,0.001,0.471,0.01,0.696,0.026
			c0.45,0.033,0.875,0.094,1.28,0.185c0.81,0.182,1.536,0.491,2.223,0.921c1.227,0.699,2.355,1.827,3.752,3.669
			c0.273,0.333,0.536,0.651,0.792,0.963"/>
		<path d="M65.783,179.773c0.992,0.145,1.877,0.306,2.646,0.615c0.775,0.295,1.441,0.727,2.066,1.225
			c1.113,0.869,2.055,2.177,3.18,4.175c0.702,1.198,1.362,2.254,2.053,3.163c0.346,0.452,0.698,0.875,1.07,1.249
			c0.376,0.36,0.771,0.683,1.192,0.968c0.934,0.626,1.957,1.05,3.118,1.25c1.169,0.154,2.474,0.101,3.949-0.164
			c0.756-0.125,1.229-0.863,1.068-1.591c-0.16-0.734-0.873-1.228-1.608-1.089c-1.104,0.206-2.029,0.268-2.832,0.182
			c-0.799-0.109-1.476-0.389-2.101-0.808c-0.625-0.425-1.196-1.002-1.782-1.743c-0.583-0.749-1.165-1.716-1.821-2.831
			c-0.664-1.157-1.298-2.058-1.913-2.889c-0.619-0.822-1.248-1.483-1.932-2.033c-0.81-0.626-1.671-1.17-2.646-1.563
			c-0.974-0.397-2.076-0.606-3.277-0.798c-0.688-0.097-1.362,0.418-1.49,1.154C64.593,178.98,65.075,179.668,65.783,179.773z"/>
		<path d="M62.375,182.388c0.436,1.016,0.872,1.926,1.354,2.735c0.487,0.803,1.037,1.462,1.672,2.051
			c0.417,0.381,0.862,0.712,1.344,0.995c0.479,0.288,0.998,0.52,1.567,0.675c1.133,0.327,2.429,0.467,3.926,0.423
			c0.776-0.054,1.346-0.708,1.29-1.453c-0.027-0.374-0.204-0.699-0.468-0.922c-0.261-0.229-0.603-0.377-0.978-0.36
			c-2.238,0.071-3.69-0.272-4.793-1.324c-1.105-1.036-1.957-2.59-2.921-5.04c-0.158-0.391-0.314-0.762-0.47-1.113"/>
		<path d="M59.823,187.967c0,0,0.394,0.178,1.082,0.489c0.344,0.155,0.763,0.343,1.242,0.559c0.481,0.213,1.039,0.419,1.64,0.66
			c2.398,0.98,5.649,2.161,8.969,3.119c0.831,0.235,1.662,0.471,2.48,0.703c0.814,0.248,1.639,0.398,2.425,0.592
			c1.578,0.364,3.047,0.722,4.328,0.923c1.274,0.228,2.337,0.416,3.081,0.548c0.371,0.068,0.668,0.091,0.867,0.122
			c0.201,0.025,0.309,0.04,0.309,0.04l-0.256,1.793c0,0-0.108-0.014-0.313-0.041c-0.204-0.029-0.505-0.054-0.884-0.124
			c-0.759-0.134-1.841-0.326-3.14-0.559c-1.305-0.204-2.802-0.567-4.409-0.939c-0.801-0.197-1.642-0.351-2.47-0.604
			c-0.834-0.234-1.682-0.476-2.527-0.716c-3.383-0.977-6.695-2.18-9.139-3.177c-0.611-0.246-1.18-0.455-1.671-0.673
			c-0.488-0.221-0.914-0.411-1.265-0.57c-0.702-0.316-1.103-0.498-1.103-0.498L59.823,187.967z"/>
		<path d="M66.38,173.632c0,0,0.329,0.148,0.905,0.408c0.287,0.131,0.636,0.289,1.037,0.472c0.402,0.179,0.87,0.348,1.372,0.55
			c2.004,0.818,4.722,1.806,7.497,2.604c0.694,0.199,1.389,0.396,2.071,0.591c0.679,0.213,1.371,0.329,2.028,0.493
			c1.319,0.302,2.545,0.608,3.618,0.771c1.066,0.189,1.955,0.351,2.577,0.461c0.311,0.058,0.56,0.075,0.727,0.101
			c0.168,0.021,0.258,0.032,0.258,0.032l0.255-1.793c0,0-0.087-0.01-0.252-0.031c-0.163-0.026-0.406-0.041-0.711-0.099
			c-0.607-0.108-1.476-0.265-2.519-0.452c-1.048-0.157-2.247-0.457-3.536-0.753c-0.642-0.16-1.318-0.273-1.981-0.483
			c-0.669-0.19-1.347-0.382-2.026-0.575c-2.712-0.781-5.368-1.747-7.327-2.547c-0.491-0.198-0.948-0.362-1.342-0.537
			c-0.391-0.178-0.732-0.333-1.014-0.461c-0.563-0.255-0.884-0.4-0.884-0.4L66.38,173.632z"/>
	</g>
	<g>
		<path d="M63.897,179.061c-0.41-0.939-0.837-1.701-1.258-2.431c-0.425-0.72-0.877-1.334-1.379-1.878
			c-0.351-0.378-0.727-0.72-1.132-1.027c-0.396-0.323-0.816-0.626-1.272-0.889c-0.455-0.263-0.943-0.496-1.467-0.698
			c-0.527-0.199-1.087-0.373-1.668-0.554c-0.666-0.194-1.406,0.22-1.638,0.933c-0.233,0.709,0.146,1.457,0.832,1.665
			c0.979,0.255,1.815,0.566,2.536,0.979c0.723,0.407,1.321,0.927,1.878,1.496c0.485,0.516,0.92,1.127,1.332,1.881
			c0.412,0.752,0.796,1.663,1.227,2.699c0.167,0.401,0.326,0.784,0.483,1.158"/>
		<path d="M44.703,166.891c0.931,0.396,1.716,0.823,2.369,1.336c0.656,0.506,1.174,1.107,1.643,1.75
			c0.407,0.58,0.747,1.248,1.046,2.052c0.299,0.805,0.549,1.76,0.825,2.85c0.331,1.354,0.662,2.559,1.063,3.631
			c0.393,1.085,0.909,1.953,1.547,2.756c1.406,1.782,3.484,2.718,6.463,3.056c0.775,0.063,1.435-0.5,1.487-1.246
			c0.054-0.75-0.511-1.38-1.245-1.476c-2.222-0.261-3.614-0.803-4.55-2.005c-0.942-1.188-1.562-2.845-2.16-5.409
			c-0.313-1.294-0.643-2.372-1.022-3.306c-0.359-0.967-0.773-1.782-1.271-2.509c-0.292-0.426-0.614-0.818-0.972-1.182
			c-0.346-0.376-0.717-0.735-1.131-1.06c-0.412-0.328-0.861-0.629-1.352-0.904c-0.493-0.271-1.021-0.526-1.57-0.787
			c-0.631-0.288-1.423,0.015-1.754,0.687C43.787,165.792,44.055,166.59,44.703,166.891z"/>
		<path d="M40.701,168.435c0.131,1.098,0.287,2.102,0.525,3.01c0.255,0.889,0.583,1.694,1.027,2.436
			c0.582,0.966,1.32,1.795,2.323,2.417c0.996,0.629,2.176,1.165,3.647,1.509c0.757,0.17,1.486-0.291,1.646-1.023
			c0.163-0.741-0.313-1.436-1.032-1.627c-4.343-1.119-5.048-3.123-5.601-8.286c-0.041-0.421-0.086-0.822-0.135-1.202"/>
		<path d="M36.682,173.07c0,0,0.325,0.282,0.897,0.775c0.287,0.244,0.627,0.553,1.034,0.886c0.413,0.323,0.88,0.69,1.388,1.091
			c1.02,0.799,2.191,1.753,3.527,2.667c0.659,0.468,1.341,0.953,2.033,1.444c0.692,0.493,1.434,0.936,2.155,1.41
			c0.728,0.464,1.456,0.929,2.172,1.386c0.736,0.424,1.461,0.842,2.161,1.246c0.704,0.399,1.377,0.801,2.029,1.153
			c0.66,0.338,1.284,0.659,1.86,0.954c1.156,0.584,2.105,1.101,2.802,1.394c0.689,0.312,1.082,0.49,1.082,0.49l-0.753,1.646
			c0,0-0.401-0.183-1.102-0.499c-0.711-0.301-1.678-0.825-2.855-1.421c-0.587-0.3-1.223-0.628-1.896-0.972
			c-0.665-0.358-1.35-0.768-2.066-1.174c-0.715-0.412-1.453-0.838-2.203-1.27c-0.729-0.467-1.471-0.939-2.212-1.413
			c-0.735-0.48-1.49-0.934-2.195-1.435c-0.706-0.501-1.4-0.995-2.072-1.472c-1.36-0.934-2.555-1.903-3.592-2.717
			c-0.519-0.408-0.993-0.782-1.413-1.114c-0.416-0.337-0.763-0.651-1.055-0.899c-0.582-0.503-0.915-0.79-0.915-0.79L36.682,173.07z"
			/>
		<path d="M47.01,161.161c0,0,0.272,0.236,0.75,0.65c0.241,0.205,0.524,0.466,0.866,0.742c0.347,0.272,0.737,0.579,1.164,0.914
			c0.854,0.667,1.832,1.472,2.953,2.233c0.553,0.394,1.123,0.8,1.703,1.211c0.577,0.414,1.202,0.78,1.806,1.178
			c0.608,0.391,1.216,0.78,1.814,1.165c0.617,0.354,1.225,0.7,1.812,1.038c0.59,0.335,1.15,0.673,1.696,0.968
			c0.553,0.282,1.075,0.55,1.558,0.795c0.968,0.487,1.758,0.927,2.343,1.168c0.576,0.26,0.905,0.408,0.905,0.408l0.754-1.648
			c0,0-0.322-0.144-0.885-0.397c-0.572-0.235-1.344-0.666-2.29-1.142c-0.473-0.241-0.983-0.502-1.523-0.778
			c-0.534-0.287-1.082-0.618-1.657-0.945c-0.575-0.329-1.168-0.67-1.771-1.015c-0.585-0.376-1.18-0.759-1.774-1.14
			c-0.59-0.388-1.2-0.744-1.766-1.149c-0.567-0.403-1.124-0.801-1.663-1.186c-1.098-0.744-2.053-1.531-2.889-2.184
			c-0.417-0.327-0.799-0.627-1.139-0.893c-0.334-0.271-0.61-0.527-0.846-0.725c-0.468-0.407-0.735-0.639-0.735-0.639L47.01,161.161z
			"/>
	</g>
	<g>
		<path d="M43.098,165.672c-0.13-1.016-0.311-1.884-0.527-2.683c-0.203-0.812-0.463-1.532-0.791-2.196
			c-0.459-0.925-1.064-1.732-1.771-2.513c-0.715-0.773-1.628-1.428-2.66-2.083c-0.584-0.373-1.41-0.185-1.832,0.435
			c-0.42,0.614-0.275,1.447,0.333,1.83c0.874,0.516,1.583,1.056,2.158,1.653c0.288,0.3,0.541,0.613,0.766,0.945
			c0.229,0.327,0.442,0.657,0.621,1.016c0.319,0.634,0.563,1.343,0.744,2.186c0.091,0.419,0.167,0.873,0.23,1.364
			c0.074,0.482,0.138,1.001,0.192,1.566c0.046,0.432,0.091,0.846,0.135,1.248"/>
		<path d="M28.089,148.604c0.79,0.633,1.414,1.27,1.898,1.944c0.242,0.337,0.448,0.684,0.623,1.043
			c0.176,0.358,0.343,0.713,0.467,1.095c0.227,0.672,0.364,1.409,0.425,2.267c0.029,0.429,0.04,0.888,0.032,1.386
			c0,0.489-0.008,1.01-0.035,1.578c-0.063,1.395-0.087,2.645-0.003,3.787c0.088,1.139,0.325,2.129,0.714,3.077
			c0.848,2.104,2.577,3.588,5.345,4.741c0.726,0.28,1.515-0.074,1.776-0.775c0.269-0.71-0.104-1.464-0.785-1.761
			c-4.141-1.728-4.55-3.813-4.354-9.002c0.064-1.332,0.054-2.461-0.051-3.465c-0.086-1.019-0.243-1.927-0.519-2.762
			c-0.161-0.49-0.359-0.959-0.6-1.408c-0.241-0.449-0.485-0.906-0.793-1.333c-0.595-0.866-1.408-1.641-2.332-2.44
			c-0.523-0.453-1.368-0.386-1.874,0.167C27.518,147.289,27.544,148.134,28.089,148.604z"/>
		<path d="M23.814,148.961c-0.18,1.089-0.325,2.106-0.335,3.034c-0.006,0.925,0.081,1.792,0.3,2.629
			c0.142,0.547,0.335,1.067,0.584,1.567c0.252,0.499,0.589,0.953,0.97,1.402c0.385,0.445,0.829,0.875,1.337,1.289
			c0.506,0.415,1.071,0.82,1.742,1.181c0.676,0.377,1.506,0.138,1.865-0.521c0.36-0.662,0.112-1.474-0.539-1.846
			c-0.957-0.577-1.687-1.143-2.229-1.741s-0.908-1.223-1.085-1.964c-0.188-0.735-0.237-1.552-0.188-2.503
			c0.049-0.948,0.188-2.025,0.449-3.318c0.079-0.416,0.149-0.814,0.209-1.194"/>
		<path d="M18.656,152.282c0,0,0.233,0.363,0.642,1c0.393,0.645,1.024,1.52,1.774,2.574c0.376,0.526,0.782,1.098,1.213,1.703
			c0.43,0.603,0.932,1.203,1.425,1.845c0.501,0.636,1.018,1.293,1.543,1.961c0.541,0.654,1.115,1.298,1.678,1.953
			c0.569,0.647,1.12,1.312,1.698,1.936c0.585,0.615,1.161,1.22,1.719,1.807c0.565,0.576,1.083,1.165,1.628,1.669
			c0.535,0.513,1.043,0.996,1.512,1.443c0.468,0.445,0.897,0.854,1.278,1.218c0.381,0.362,0.738,0.65,1.02,0.902
			c0.57,0.493,0.896,0.777,0.896,0.777l-1.188,1.368c0,0-0.331-0.289-0.912-0.794c-0.286-0.255-0.651-0.548-1.039-0.918
			s-0.825-0.786-1.303-1.239c-0.477-0.455-0.993-0.949-1.539-1.471c-0.555-0.513-1.082-1.111-1.657-1.7
			c-0.568-0.598-1.156-1.213-1.752-1.841c-0.588-0.633-1.15-1.311-1.73-1.972c-0.572-0.666-1.156-1.322-1.708-1.989
			c-0.535-0.68-1.062-1.349-1.571-1.996c-0.503-0.653-1.014-1.266-1.452-1.881c-0.438-0.615-0.853-1.197-1.235-1.732
			c-0.765-1.075-1.407-1.967-1.808-2.625c-0.416-0.646-0.653-1.017-0.653-1.017L18.656,152.282z"/>
		<path d="M31.909,143.748c0,0,0.195,0.304,0.536,0.836c0.325,0.545,0.858,1.273,1.487,2.157c0.313,0.44,0.653,0.919,1.013,1.426
			c0.358,0.509,0.783,1.01,1.196,1.545c0.418,0.533,0.851,1.085,1.289,1.644c0.454,0.549,0.938,1.086,1.408,1.635
			c0.478,0.543,0.936,1.103,1.421,1.624c0.491,0.515,0.975,1.021,1.443,1.513c0.474,0.482,0.902,0.98,1.361,1.4
			c0.449,0.427,0.875,0.832,1.268,1.206c0.392,0.375,0.752,0.718,1.07,1.022c0.316,0.307,0.619,0.543,0.854,0.756
			c0.479,0.411,0.753,0.649,0.753,0.649l1.186-1.369c0,0-0.267-0.231-0.734-0.636c-0.23-0.206-0.526-0.438-0.837-0.736
			s-0.662-0.634-1.045-1.001c-0.384-0.365-0.801-0.76-1.24-1.182c-0.449-0.407-0.867-0.896-1.332-1.369
			c-0.457-0.479-0.93-0.975-1.411-1.477c-0.474-0.51-0.921-1.058-1.388-1.588c-0.46-0.537-0.934-1.062-1.377-1.599
			c-0.43-0.546-0.852-1.085-1.261-1.605c-0.403-0.526-0.819-1.016-1.17-1.511c-0.352-0.496-0.684-0.965-0.99-1.396
			c-0.614-0.862-1.138-1.576-1.454-2.107c-0.333-0.52-0.523-0.818-0.523-0.818L31.909,143.748z"/>
	</g>
	<g>
		<path d="M26.891,146.98c0.157-1.01,0.24-1.9,0.244-2.722c0.027-0.833-0.013-1.6-0.141-2.329c-0.389-2.019-1.281-3.85-2.966-5.65
			c-0.452-0.524-1.297-0.576-1.877-0.102c-0.571,0.469-0.688,1.321-0.188,1.847c0.69,0.741,1.217,1.462,1.598,2.198
			c0.193,0.366,0.339,0.743,0.472,1.118c0.138,0.373,0.241,0.754,0.313,1.149c0.269,1.389,0.088,3.022-0.316,5.237
			c-0.078,0.428-0.151,0.837-0.223,1.238"/>
		<path d="M17.305,126.379c1.163,1.66,1.619,3.171,1.709,4.762c0.062,1.414-0.352,2.999-1.072,5.137
			c-0.457,1.322-0.833,2.516-1.078,3.639c-0.212,1.105-0.283,2.135-0.174,3.151c0.062,0.562,0.18,1.105,0.354,1.637
			c0.178,0.529,0.447,1.027,0.76,1.527c0.316,0.496,0.694,0.985,1.138,1.468c0.442,0.484,0.94,0.967,1.553,1.42
			c0.616,0.474,1.473,0.354,1.921-0.244c0.453-0.604,0.321-1.443-0.267-1.906c-0.864-0.709-1.506-1.373-1.956-2.043
			c-0.45-0.671-0.723-1.341-0.791-2.102c-0.082-0.753-0.012-1.569,0.175-2.501c0.187-0.934,0.479-1.979,0.925-3.22
			c0.439-1.261,0.752-2.349,0.938-3.342c0.174-0.989,0.308-1.916,0.274-2.793c-0.093-2.053-0.704-3.993-2.118-6.016
			c-0.369-0.585-1.195-0.759-1.838-0.372C17.12,124.962,16.881,125.788,17.305,126.379z"/>
		<path d="M13.093,125.518c-1.016,2.005-1.56,3.687-1.636,5.424c-0.017,0.564,0.005,1.125,0.12,1.669
			c0.119,0.542,0.298,1.08,0.539,1.618c0.495,1.069,1.177,2.167,2.26,3.238c0.541,0.556,1.403,0.56,1.934,0.028
			c0.53-0.534,0.533-1.388,0.001-1.924c-1.514-1.646-2.162-2.985-2.142-4.488c0.071-1.518,0.724-3.192,1.896-5.51
			c0.196-0.377,0.377-0.738,0.545-1.087"/>
		<path d="M7.206,127.242c0,0,0.118,0.417,0.325,1.144s0.576,1.742,0.984,2.973c0.21,0.612,0.438,1.276,0.677,1.978
			c0.271,0.691,0.559,1.42,0.854,2.174c0.301,0.752,0.597,1.534,0.927,2.318c0.35,0.774,0.704,1.562,1.06,2.348
			c0.684,1.589,1.49,3.116,2.229,4.557c0.712,1.455,1.502,2.745,2.139,3.871c0.324,0.562,0.62,1.076,0.884,1.532
			c0.282,0.441,0.529,0.829,0.732,1.146c0.407,0.638,0.64,1,0.64,1l-1.522,0.981c0,0-0.237-0.372-0.652-1.02
			c-0.207-0.323-0.458-0.718-0.746-1.169c-0.269-0.465-0.57-0.987-0.899-1.56c-0.649-1.147-1.453-2.462-2.18-3.944
			c-0.753-1.468-1.573-3.023-2.27-4.641c-0.362-0.802-0.725-1.605-1.08-2.394c-0.337-0.799-0.639-1.596-0.945-2.363
			c-0.301-0.767-0.593-1.509-0.869-2.213c-0.245-0.715-0.477-1.392-0.69-2.016c-0.415-1.255-0.79-2.288-1.002-3.029
			c-0.211-0.74-0.332-1.162-0.332-1.162L7.206,127.242z"/>
		<path d="M22.333,122.809c0,0,0.098,0.348,0.27,0.955c0.171,0.609,0.486,1.455,0.825,2.483c0.174,0.513,0.363,1.068,0.562,1.656
			c0.229,0.577,0.47,1.186,0.718,1.814c0.252,0.628,0.496,1.283,0.772,1.939c0.292,0.646,0.591,1.306,0.889,1.963
			c0.565,1.329,1.247,2.605,1.862,3.811c0.59,1.22,1.26,2.294,1.792,3.239c0.269,0.47,0.516,0.901,0.734,1.283
			c0.238,0.37,0.445,0.692,0.617,0.959c0.34,0.532,0.535,0.836,0.535,0.836l1.523-0.981c0,0-0.19-0.297-0.524-0.816
			c-0.167-0.261-0.37-0.575-0.603-0.939c-0.214-0.372-0.455-0.794-0.719-1.254c-0.519-0.923-1.174-1.972-1.75-3.166
			c-0.602-1.179-1.27-2.424-1.821-3.725c-0.292-0.644-0.583-1.286-0.87-1.918c-0.269-0.641-0.507-1.282-0.753-1.896
			c-0.244-0.614-0.479-1.209-0.703-1.772c-0.194-0.575-0.379-1.118-0.548-1.618c-0.332-1.006-0.641-1.833-0.807-2.428
			c-0.168-0.596-0.264-0.936-0.264-0.936L22.333,122.809z"/>
	</g>
	<g>
		<path d="M16.604,124.488c0.891-1.848,1.317-3.329,1.531-4.813c0.133-1.03,0.063-2.037-0.144-3.068
			c-0.179-1.036-0.54-2.088-1.09-3.192c-0.322-0.624-1.097-0.917-1.792-0.624c-0.706,0.291-0.99,1.063-0.677,1.711
			c0.443,0.908,0.735,1.751,0.884,2.565c0.156,0.815,0.226,1.594,0.126,2.394c-0.08,0.707-0.268,1.438-0.577,2.244
			c-0.3,0.806-0.678,1.677-1.211,2.689c-0.196,0.39-0.386,0.761-0.569,1.127"/>
		<path d="M13.262,102.013c0.306,0.961,0.451,1.837,0.499,2.666c0.066,0.827-0.007,1.609-0.217,2.387
			c-0.182,0.687-0.492,1.385-0.896,2.136c-0.392,0.752-0.913,1.561-1.587,2.486c-1.686,2.286-2.746,4.143-3.135,6.157
			c-0.23,1.121-0.132,2.213,0.181,3.349c0.322,1.135,0.855,2.314,1.766,3.532c0.453,0.629,1.306,0.76,1.907,0.31
			c0.604-0.449,0.731-1.295,0.285-1.903c-1.282-1.844-1.688-3.273-1.48-4.749c0.289-1.49,1.209-3.058,2.677-5.175
			c0.79-1.086,1.407-2.043,1.875-2.944s0.777-1.743,1.034-2.599c0.28-1.001,0.385-2.009,0.308-3.059
			c-0.053-1.051-0.228-2.147-0.612-3.318c-0.213-0.665-0.971-1.065-1.689-0.876C13.457,100.6,13.048,101.323,13.262,102.013z"/>
		<path d="M9.423,100c-1.451,1.637-2.522,3.096-3.095,4.739c-0.332,1.07-0.42,2.168-0.278,3.335c0.077,0.584,0.19,1.188,0.408,1.81
			c0.221,0.621,0.504,1.265,0.851,1.935c0.354,0.686,1.176,0.936,1.838,0.574s0.916-1.18,0.564-1.846
			c-2.019-4.012-0.949-5.857,2.579-9.657c0.283-0.307,0.551-0.604,0.798-0.89"/>
		<path d="M3.289,100c0,0,0.042,1.723,0.106,4.308c0.004,0.647,0.072,1.346,0.124,2.085c0.058,0.739,0.116,1.52,0.178,2.326
			c0.032,0.402,0.065,0.812,0.099,1.227c0.052,0.413,0.104,0.831,0.157,1.253c0.107,0.844,0.217,1.701,0.324,2.556
			c0.094,0.858,0.256,1.706,0.405,2.545c0.149,0.835,0.297,1.66,0.439,2.455c0.127,0.801,0.328,1.559,0.487,2.283
			c0.168,0.723,0.325,1.406,0.472,2.037c0.269,1.269,0.605,2.297,0.801,3.027c0.206,0.727,0.324,1.141,0.324,1.141l-1.738,0.512
			c0,0-0.12-0.424-0.331-1.166c-0.198-0.742-0.54-1.791-0.815-3.082c-0.148-0.644-0.31-1.34-0.479-2.077
			c-0.163-0.737-0.367-1.51-0.497-2.325c-0.146-0.812-0.295-1.649-0.448-2.503c-0.151-0.853-0.315-1.717-0.411-2.591
			c-0.111-0.873-0.223-1.745-0.331-2.604c-0.055-0.429-0.107-0.855-0.16-1.275c-0.034-0.423-0.067-0.84-0.101-1.25
			c-0.063-0.823-0.124-1.615-0.181-2.37c-0.053-0.752-0.122-1.463-0.126-2.122C1.521,101.755,1.478,100,1.478,100H3.289z"/>
		<path d="M19.052,100c0,0,0.037,1.446,0.093,3.617c-0.002,0.543,0.061,1.127,0.105,1.747c0.048,0.619,0.097,1.273,0.148,1.948
			c0.025,0.339,0.053,0.682,0.079,1.029c0.045,0.346,0.09,0.695,0.135,1.048c0.09,0.705,0.181,1.423,0.271,2.14
			c0.074,0.72,0.213,1.43,0.339,2.128c0.125,0.701,0.248,1.389,0.366,2.056c0.102,0.671,0.276,1.302,0.41,1.908
			c0.139,0.604,0.271,1.176,0.393,1.704c0.219,1.061,0.508,1.917,0.67,2.528c0.173,0.607,0.271,0.955,0.271,0.955l1.738-0.511
			c0,0-0.097-0.337-0.265-0.933c-0.158-0.597-0.441-1.434-0.655-2.472c-0.119-0.516-0.248-1.074-0.384-1.665
			c-0.131-0.593-0.303-1.21-0.401-1.864c-0.115-0.652-0.235-1.325-0.357-2.01c-0.123-0.684-0.26-1.378-0.331-2.082
			c-0.089-0.699-0.178-1.4-0.266-2.09c-0.044-0.346-0.089-0.688-0.133-1.025c-0.025-0.339-0.052-0.676-0.077-1.007
			c-0.05-0.659-0.099-1.299-0.145-1.905c-0.043-0.604-0.105-1.178-0.104-1.708C20.9,101.414,20.863,100,20.863,100H19.052z"/>
	</g>
	<g>
		<path d="M13.082,100c1.394-1.525,2.28-2.826,2.823-4.195c0.414-0.952,0.681-1.936,0.761-2.985c0.048-0.523,0.028-1.067,0.01-1.627
			c-0.015-0.559-0.07-1.14-0.168-1.744c-0.111-0.687-0.803-1.188-1.543-1.101c-0.74,0.085-1.253,0.744-1.146,1.454
			c0.078,0.496,0.118,0.966,0.138,1.416c0.036,0.45,0.039,0.881,0.01,1.295c-0.06,0.828-0.251,1.592-0.577,2.332
			c-0.303,0.654-0.648,1.305-1.152,1.994c-0.501,0.689-1.139,1.418-1.943,2.24c-0.305,0.318-0.595,0.623-0.88,0.921"/>
		<path d="M16.177,77.482c-0.019,0.998-0.044,1.898-0.236,2.705c-0.184,0.809-0.487,1.536-0.921,2.22
			c-0.712,1.225-1.83,2.351-3.675,3.747c-1.098,0.864-2.028,1.67-2.827,2.483c-0.783,0.815-1.469,1.636-1.884,2.554
			c-0.482,1.014-0.739,2.087-0.773,3.263c-0.029,0.588,0.045,1.203,0.172,1.85c0.126,0.646,0.309,1.321,0.55,2.032
			c0.246,0.73,1.021,1.095,1.729,0.833c0.71-0.263,1.084-1.038,0.838-1.746c-0.771-2.131-0.728-3.613-0.082-4.97
			c0.332-0.678,0.79-1.33,1.472-2.012s1.527-1.399,2.539-2.208c0.517-0.413,0.982-0.807,1.404-1.19
			c0.422-0.383,0.837-0.749,1.191-1.115c0.719-0.73,1.277-1.449,1.72-2.206c0.131-0.222,0.247-0.447,0.358-0.677
			c0.121-0.227,0.232-0.458,0.333-0.693c0.201-0.471,0.362-0.961,0.482-1.472c0.12-0.512,0.2-1.046,0.241-1.607
			c0.046-0.56,0.094-1.137,0.082-1.75c-0.006-0.694-0.614-1.288-1.36-1.31C16.785,76.188,16.178,76.766,16.177,77.482z"/>
		<path d="M13.093,74.48c-1.874,1.158-3.369,2.246-4.302,3.684c-0.624,0.935-1.06,1.955-1.243,3.118
			c-0.155,1.169-0.1,2.474,0.164,3.949c0.125,0.753,0.88,1.228,1.602,1.064c0.717-0.164,1.223-0.876,1.078-1.611
			c-0.204-1.104-0.267-2.026-0.181-2.83c0.095-0.803,0.385-1.476,0.802-2.103c0.423-0.625,1.001-1.199,1.743-1.785
			c0.733-0.589,1.711-1.17,2.823-1.829c0.363-0.213,0.707-0.421,1.031-0.625"/>
		<path d="M7.206,72.756c0,0-0.118,0.415-0.324,1.142c-0.195,0.73-0.532,1.759-0.801,3.026c-0.146,0.632-0.304,1.314-0.472,2.038
			c-0.159,0.725-0.36,1.482-0.487,2.282c-0.143,0.797-0.29,1.62-0.439,2.457s-0.312,1.686-0.405,2.544
			c-0.107,0.856-0.217,1.712-0.324,2.556c-0.053,0.421-0.105,0.84-0.157,1.252c-0.033,0.415-0.066,0.825-0.099,1.229
			c-0.062,0.806-0.12,1.586-0.178,2.325c-0.052,0.739-0.12,1.438-0.124,2.084C3.331,98.276,3.289,100,3.289,100H1.478
			c0,0,0.043-1.756,0.109-4.389c0.004-0.659,0.073-1.37,0.126-2.124c0.057-0.753,0.118-1.547,0.181-2.368
			c0.033-0.41,0.066-0.828,0.101-1.25c0.053-0.421,0.105-0.847,0.16-1.276c0.108-0.858,0.22-1.731,0.331-2.604
			c0.096-0.874,0.26-1.739,0.411-2.592c0.153-0.853,0.303-1.691,0.448-2.502c0.13-0.815,0.334-1.588,0.497-2.326
			c0.17-0.736,0.331-1.434,0.479-2.076c0.275-1.291,0.617-2.34,0.815-3.083c0.211-0.741,0.331-1.164,0.331-1.164L7.206,72.756z"/>
		<path d="M22.333,77.19c0,0-0.099,0.347-0.271,0.954c-0.162,0.611-0.451,1.468-0.67,2.529c-0.122,0.527-0.254,1.1-0.393,1.704
			c-0.134,0.605-0.309,1.237-0.41,1.908c-0.118,0.666-0.241,1.355-0.366,2.056c-0.126,0.699-0.265,1.408-0.339,2.128
			c-0.091,0.717-0.182,1.433-0.271,2.139c-0.045,0.353-0.09,0.703-0.135,1.049c-0.026,0.348-0.054,0.691-0.079,1.029
			c-0.052,0.676-0.101,1.329-0.148,1.948c-0.045,0.62-0.107,1.204-0.105,1.747C19.089,98.553,19.052,100,19.052,100h1.812
			c0,0,0.037-1.415,0.091-3.538c-0.002-0.531,0.061-1.103,0.104-1.709c0.046-0.605,0.095-1.244,0.145-1.905
			c0.025-0.331,0.052-0.667,0.077-1.007c0.044-0.338,0.089-0.68,0.133-1.024c0.088-0.689,0.177-1.39,0.266-2.092
			c0.071-0.703,0.208-1.396,0.331-2.08c0.122-0.685,0.242-1.357,0.357-2.009c0.099-0.655,0.271-1.272,0.401-1.865
			c0.136-0.591,0.265-1.149,0.384-1.665c0.214-1.038,0.497-1.875,0.655-2.473c0.168-0.594,0.265-0.933,0.265-0.933L22.333,77.19z"/>
	</g>
	<g>
		<path d="M16.604,75.511c1.685-1.096,2.971-2.07,3.887-3.226c0.326-0.4,0.597-0.826,0.859-1.266c0.269-0.437,0.5-0.897,0.695-1.386
			c0.404-0.971,0.599-2.08,0.794-3.28c0.095-0.687-0.423-1.36-1.159-1.489c-0.735-0.128-1.422,0.354-1.526,1.063
			c-0.13,0.997-0.302,1.878-0.609,2.647c-0.29,0.777-0.734,1.439-1.218,2.071c-0.865,1.115-2.188,2.057-4.168,3.188
			c-0.372,0.223-0.727,0.437-1.073,0.645"/>
		<path d="M25.911,54.782c-0.267,0.972-0.569,1.814-0.984,2.533c-0.401,0.726-0.937,1.316-1.503,1.873
			c-0.514,0.485-1.125,0.918-1.879,1.329c-0.745,0.415-1.671,0.79-2.707,1.221c-2.574,1.049-4.603,1.98-5.945,3.498
			c-0.75,0.836-1.352,1.774-1.677,2.908c-0.328,1.133-0.467,2.431-0.425,3.927c0.039,0.772,0.702,1.348,1.443,1.293
			c0.374-0.027,0.695-0.205,0.925-0.466c0.239-0.258,0.379-0.603,0.366-0.977c-0.077-2.243,0.28-3.689,1.331-4.791
			c1.029-1.108,2.598-1.95,5.045-2.911c1.237-0.492,2.244-0.979,3.129-1.481c0.904-0.494,1.65-1.02,2.297-1.617
			c0.38-0.35,0.716-0.728,1.03-1.129c0.331-0.393,0.627-0.814,0.891-1.27c0.265-0.455,0.497-0.941,0.699-1.467
			c0.103-0.262,0.193-0.535,0.283-0.814c0.1-0.273,0.191-0.557,0.276-0.85c0.195-0.666-0.218-1.407-0.93-1.639
			C26.869,53.718,26.118,54.097,25.911,54.782z"/>
		<path d="M23.814,51.038c-1.069,0.285-2.033,0.586-2.905,0.947c-0.847,0.377-1.594,0.817-2.264,1.364
			c-1.781,1.406-2.713,3.485-3.042,6.469c-0.06,0.773,0.503,1.43,1.25,1.482c0.756,0.057,1.371-0.518,1.468-1.25
			c0.124-1.112,0.334-2.013,0.65-2.755c0.16-0.371,0.341-0.706,0.563-1.004c0.231-0.293,0.491-0.556,0.785-0.794
			c0.587-0.477,1.309-0.86,2.191-1.21c0.443-0.173,0.92-0.343,1.452-0.502c0.542-0.153,1.129-0.305,1.762-0.459
			c0.411-0.1,0.802-0.202,1.171-0.305"/>
		<path d="M18.656,47.716c0,0-0.232,0.364-0.64,1c-0.203,0.318-0.45,0.705-0.732,1.148c-0.264,0.455-0.56,0.97-0.884,1.53
			c-0.637,1.127-1.427,2.416-2.139,3.872c-0.738,1.44-1.545,2.968-2.229,4.556c-0.355,0.787-0.71,1.574-1.06,2.35
			c-0.33,0.783-0.626,1.565-0.927,2.317c-0.296,0.754-0.583,1.482-0.854,2.173c-0.239,0.702-0.467,1.366-0.677,1.979
			c-0.408,1.229-0.777,2.245-0.984,2.973c-0.207,0.726-0.325,1.142-0.325,1.142l-1.738-0.51c0,0,0.121-0.423,0.332-1.164
			c0.212-0.739,0.587-1.775,1.002-3.027c0.214-0.625,0.445-1.301,0.69-2.017c0.276-0.704,0.568-1.446,0.869-2.214
			c0.307-0.766,0.608-1.563,0.945-2.361c0.355-0.789,0.718-1.592,1.08-2.394c0.696-1.617,1.517-3.175,2.27-4.643
			c0.727-1.481,1.53-2.796,2.18-3.943c0.329-0.571,0.631-1.096,0.899-1.56c0.288-0.452,0.539-0.846,0.746-1.17
			c0.415-0.647,0.652-1.019,0.652-1.019L18.656,47.716z"/>
		<path d="M31.909,56.251c0,0-0.195,0.304-0.535,0.837c-0.172,0.265-0.379,0.588-0.617,0.959c-0.219,0.382-0.466,0.813-0.734,1.282
			c-0.532,0.944-1.202,2.019-1.792,3.239c-0.615,1.206-1.297,2.48-1.862,3.811c-0.298,0.658-0.597,1.315-0.889,1.963
			c-0.276,0.655-0.521,1.312-0.772,1.939c-0.248,0.63-0.489,1.238-0.718,1.814c-0.198,0.588-0.388,1.144-0.562,1.655
			c-0.339,1.028-0.654,1.875-0.825,2.484c-0.172,0.607-0.27,0.955-0.27,0.955l1.738,0.51c0,0,0.096-0.34,0.264-0.935
			c0.166-0.594,0.475-1.421,0.807-2.427c0.169-0.502,0.354-1.044,0.548-1.618c0.225-0.564,0.459-1.158,0.703-1.774
			c0.246-0.613,0.484-1.255,0.753-1.896c0.287-0.633,0.578-1.275,0.87-1.918c0.552-1.301,1.22-2.547,1.821-3.725
			c0.576-1.194,1.231-2.243,1.75-3.167c0.264-0.459,0.505-0.881,0.719-1.254c0.232-0.362,0.436-0.679,0.603-0.938
			c0.334-0.52,0.524-0.817,0.524-0.817L31.909,56.251z"/>
	</g>
	<g>
		<path d="M26.891,53.019c0.985-0.271,1.813-0.579,2.582-0.9c0.773-0.317,1.447-0.677,2.059-1.096
			c0.425-0.292,0.818-0.615,1.182-0.973c0.365-0.355,0.733-0.721,1.056-1.137c0.327-0.412,0.627-0.861,0.903-1.352
			c0.277-0.488,0.52-1.027,0.782-1.574c0.287-0.632-0.018-1.423-0.689-1.753c-0.67-0.331-1.468-0.063-1.768,0.587
			c-0.385,0.938-0.819,1.717-1.329,2.372c-0.513,0.652-1.102,1.181-1.745,1.649c-0.58,0.405-1.249,0.747-2.056,1.047
			c-0.402,0.149-0.84,0.29-1.318,0.422c-0.475,0.136-0.972,0.277-1.525,0.41c-0.421,0.108-0.823,0.211-1.216,0.312"/>
		<path d="M41.66,35.742c-0.517,0.872-1.057,1.583-1.654,2.158c-0.6,0.574-1.261,1.009-1.964,1.38
			c-0.634,0.319-1.342,0.562-2.183,0.743c-0.844,0.178-1.815,0.297-2.936,0.415c-1.389,0.135-2.629,0.29-3.747,0.535
			c-1.121,0.242-2.062,0.622-2.946,1.141c-1.963,1.138-3.187,3.061-3.939,5.963c-0.173,0.757,0.289,1.489,1.021,1.648
			c0.74,0.165,1.431-0.313,1.633-1.025c0.283-1.083,0.62-1.942,1.041-2.633c0.212-0.344,0.438-0.649,0.701-0.911
			c0.271-0.258,0.566-0.479,0.891-0.673c0.65-0.388,1.419-0.663,2.342-0.882c0.464-0.107,0.958-0.208,1.511-0.287
			c0.559-0.074,1.16-0.139,1.81-0.2c1.325-0.125,2.442-0.297,3.421-0.542c1.002-0.224,1.873-0.513,2.661-0.904
			c0.463-0.229,0.898-0.491,1.309-0.793c0.416-0.296,0.829-0.608,1.209-0.972c0.383-0.361,0.743-0.764,1.087-1.209
			c0.342-0.446,0.662-0.939,1-1.445c0.374-0.584,0.187-1.41-0.431-1.833C42.88,34.992,42.052,35.145,41.66,35.742z"/>
		<path d="M40.701,31.563c-1.105-0.024-2.126-0.018-3.053,0.097c-0.916,0.127-1.761,0.336-2.558,0.671
			c-1.043,0.435-1.961,1.055-2.721,1.958c-0.386,0.444-0.747,0.945-1.085,1.506c-0.335,0.564-0.663,1.175-0.925,1.891
			c-0.277,0.724,0.078,1.512,0.78,1.773c0.709,0.265,1.471-0.103,1.754-0.793c1.726-4.137,3.808-4.553,8.996-4.37
			c0.424,0.02,0.827,0.032,1.212,0.037"/>
		<path d="M36.682,26.93c0,0-0.326,0.282-0.896,0.777c-0.281,0.251-0.639,0.539-1.02,0.901c-0.381,0.363-0.811,0.771-1.278,1.218
			c-0.469,0.446-0.977,0.931-1.512,1.443c-0.545,0.504-1.063,1.091-1.628,1.67c-0.558,0.585-1.134,1.19-1.719,1.806
			c-0.578,0.622-1.129,1.287-1.698,1.936c-0.563,0.655-1.137,1.299-1.678,1.953c-0.525,0.668-1.042,1.325-1.543,1.96
			c-0.493,0.642-0.995,1.242-1.425,1.846c-0.431,0.604-0.837,1.176-1.213,1.702c-0.75,1.056-1.382,1.931-1.774,2.576
			c-0.408,0.636-0.642,0.998-0.642,0.998l-1.522-0.98c0,0,0.237-0.369,0.653-1.017c0.4-0.658,1.043-1.549,1.808-2.624
			c0.383-0.537,0.798-1.118,1.235-1.734c0.438-0.615,0.949-1.228,1.452-1.88c0.51-0.647,1.036-1.316,1.571-1.997
			c0.552-0.666,1.136-1.322,1.708-1.99c0.58-0.659,1.143-1.337,1.73-1.97c0.596-0.627,1.184-1.244,1.752-1.84
			c0.575-0.59,1.103-1.188,1.657-1.702c0.546-0.521,1.063-1.015,1.539-1.47c0.478-0.454,0.915-0.871,1.303-1.239
			c0.388-0.37,0.753-0.664,1.039-0.92c0.581-0.504,0.912-0.791,0.912-0.791L36.682,26.93z"/>
		<path d="M47.01,38.838c0,0-0.274,0.237-0.753,0.651c-0.235,0.21-0.538,0.447-0.854,0.754c-0.318,0.305-0.679,0.647-1.07,1.022
			c-0.393,0.373-0.818,0.778-1.268,1.207c-0.459,0.42-0.888,0.917-1.361,1.4c-0.469,0.49-0.952,0.997-1.443,1.512
			c-0.485,0.521-0.943,1.081-1.421,1.624c-0.47,0.549-0.954,1.086-1.408,1.635c-0.438,0.559-0.871,1.11-1.289,1.643
			c-0.413,0.537-0.838,1.038-1.196,1.545c-0.359,0.506-0.699,0.985-1.013,1.427c-0.629,0.884-1.162,1.613-1.487,2.156
			c-0.341,0.532-0.536,0.837-0.536,0.837l1.523,0.98c0,0,0.19-0.297,0.523-0.817c0.316-0.532,0.84-1.245,1.454-2.108
			c0.307-0.433,0.639-0.9,0.99-1.396c0.351-0.496,0.767-0.984,1.17-1.51c0.409-0.521,0.831-1.06,1.261-1.606
			c0.443-0.536,0.917-1.062,1.377-1.599c0.467-0.53,0.914-1.078,1.388-1.588c0.481-0.503,0.954-0.998,1.411-1.478
			c0.465-0.473,0.883-0.959,1.332-1.37c0.439-0.418,0.856-0.814,1.24-1.18c0.383-0.366,0.734-0.702,1.045-1
			c0.311-0.3,0.606-0.531,0.837-0.737c0.468-0.404,0.734-0.636,0.734-0.636L47.01,38.838z"/>
	</g>
	<g>
		<path d="M43.098,34.328c1.021,0.013,1.913-0.036,2.728-0.145c0.833-0.086,1.582-0.24,2.287-0.47
			c1.943-0.673,3.629-1.819,5.175-3.738c0.453-0.524,0.384-1.367-0.169-1.874c-0.547-0.501-1.398-0.483-1.857,0.073
			c-0.634,0.791-1.27,1.415-1.945,1.898c-0.337,0.242-0.684,0.448-1.043,0.623c-0.35,0.189-0.712,0.347-1.092,0.475
			c-0.672,0.226-1.41,0.365-2.27,0.426c-0.428,0.031-0.891,0.037-1.383,0.036c-0.485,0.007-1.009-0.005-1.576-0.031
			c-0.435-0.016-0.851-0.029-1.257-0.044"/>
		<path d="M62.122,21.896c-0.741,0.691-1.461,1.218-2.198,1.599c-0.367,0.19-0.74,0.345-1.122,0.466
			c-0.373,0.136-0.753,0.24-1.146,0.313c-0.698,0.126-1.447,0.158-2.306,0.094c-0.429-0.03-0.888-0.09-1.376-0.164
			c-0.48-0.063-0.997-0.149-1.556-0.257c-1.372-0.263-2.606-0.463-3.75-0.543c-1.134-0.065-2.154,0.021-3.146,0.273
			c-1.093,0.283-2.095,0.763-2.975,1.549c-0.884,0.779-1.733,1.756-2.476,3.073c-0.38,0.677-0.142,1.508,0.517,1.867
			c0.664,0.364,1.467,0.106,1.851-0.531c2.299-3.852,4.42-3.963,9.529-3.035c1.31,0.254,2.431,0.405,3.438,0.445
			c1.014,0.05,1.94,0.033,2.806-0.123c2.018-0.387,3.852-1.273,5.655-2.952c0.524-0.452,0.578-1.296,0.104-1.876
			C63.503,21.518,62.655,21.409,62.122,21.896z"/>
		<path d="M62.375,17.611c-1.052-0.332-2.044-0.635-2.954-0.761c-0.916-0.139-1.786-0.177-2.646-0.081
			c-0.563,0.062-1.106,0.178-1.638,0.353c-0.521,0.191-1.026,0.45-1.523,0.766c-0.497,0.316-0.984,0.694-1.468,1.138
			c-0.241,0.222-0.481,0.458-0.721,0.713c-0.236,0.26-0.464,0.548-0.693,0.848c-0.471,0.615-0.352,1.47,0.249,1.919
			c0.604,0.449,1.447,0.326,1.902-0.275c1.423-1.718,2.638-2.583,4.14-2.753c0.754-0.082,1.57-0.012,2.504,0.174
			c0.937,0.192,1.976,0.468,3.221,0.914c0.4,0.139,0.785,0.266,1.152,0.379"/>
		<path d="M59.823,12.032c0,0-0.393,0.179-1.082,0.49c-0.696,0.293-1.646,0.81-2.802,1.394c-0.576,0.296-1.2,0.616-1.86,0.955
			c-0.652,0.353-1.325,0.753-2.029,1.152c-0.7,0.404-1.425,0.821-2.161,1.246c-0.716,0.457-1.444,0.922-2.172,1.387
			c-0.722,0.473-1.463,0.916-2.155,1.408s-1.374,0.977-2.033,1.444c-1.336,0.916-2.508,1.869-3.527,2.667
			c-0.508,0.401-0.975,0.768-1.388,1.093c-0.407,0.332-0.747,0.64-1.034,0.885c-0.572,0.493-0.897,0.776-0.897,0.776l-1.188-1.368
			c0,0,0.333-0.288,0.915-0.792c0.292-0.248,0.639-0.562,1.055-0.899c0.42-0.332,0.895-0.706,1.413-1.114
			c1.037-0.813,2.231-1.782,3.592-2.716c0.672-0.478,1.366-0.971,2.072-1.472c0.705-0.501,1.46-0.953,2.195-1.436
			c0.741-0.474,1.482-0.946,2.212-1.411c0.75-0.434,1.488-0.858,2.203-1.271c0.717-0.407,1.401-0.814,2.066-1.174
			c0.673-0.345,1.309-0.672,1.896-0.974c1.178-0.594,2.145-1.12,2.855-1.419c0.7-0.318,1.102-0.499,1.102-0.499L59.823,12.032z"/>
		<path d="M66.38,26.367c0,0-0.329,0.148-0.905,0.408c-0.585,0.24-1.375,0.681-2.343,1.167c-0.482,0.246-1.005,0.514-1.558,0.796
			c-0.546,0.295-1.106,0.634-1.696,0.968c-0.587,0.337-1.194,0.686-1.812,1.039c-0.599,0.384-1.206,0.774-1.814,1.164
			c-0.604,0.397-1.229,0.763-1.806,1.177c-0.58,0.413-1.15,0.819-1.703,1.212c-1.121,0.762-2.099,1.566-2.953,2.234
			c-0.427,0.334-0.817,0.641-1.164,0.912c-0.342,0.277-0.625,0.538-0.866,0.742c-0.478,0.415-0.75,0.651-0.75,0.651l1.186,1.369
			c0,0,0.268-0.231,0.735-0.637c0.235-0.201,0.512-0.455,0.846-0.727c0.34-0.266,0.722-0.565,1.139-0.892
			c0.836-0.652,1.791-1.44,2.889-2.185c0.539-0.384,1.096-0.781,1.663-1.186c0.565-0.405,1.176-0.762,1.766-1.149
			c0.595-0.382,1.189-0.764,1.774-1.14c0.604-0.345,1.196-0.685,1.771-1.015c0.575-0.326,1.123-0.658,1.657-0.946
			c0.54-0.275,1.051-0.537,1.523-0.777c0.946-0.476,1.718-0.907,2.29-1.141c0.563-0.254,0.885-0.399,0.885-0.399L66.38,26.367z"/>
	</g>
	<g>
		<path d="M63.897,20.938c0.976,0.303,1.848,0.514,2.658,0.637c0.813,0.127,1.585,0.213,2.324,0.189
			c0.518-0.014,1.024-0.07,1.523-0.171c0.498-0.106,0.992-0.247,1.494-0.404c0.998-0.332,1.985-0.847,2.996-1.556
			c0.582-0.377,0.756-1.198,0.368-1.843c-0.384-0.642-1.204-0.864-1.797-0.44c-1.662,1.155-3.167,1.626-4.761,1.715
			c-1.418,0.056-3.001-0.341-5.138-1.062c-0.414-0.139-0.809-0.271-1.194-0.399"/>
		<path d="M85.658,14.41c-0.908,0.443-1.749,0.736-2.565,0.885c-0.817,0.14-1.593,0.222-2.394,0.118
			c-0.706-0.08-1.435-0.268-2.241-0.578c-0.808-0.315-1.674-0.682-2.688-1.22c-1.241-0.641-2.377-1.205-3.445-1.586
			c-1.063-0.366-2.073-0.591-3.097-0.629c-0.565-0.02-1.122,0.013-1.672,0.113c-0.543,0.119-1.081,0.297-1.618,0.539
			c-0.538,0.241-1.076,0.544-1.618,0.912c-0.272,0.184-0.544,0.383-0.817,0.599c-0.269,0.229-0.537,0.478-0.808,0.741
			c-0.557,0.541-0.563,1.405-0.032,1.935c0.532,0.531,1.385,0.534,1.922,0.003c1.656-1.497,2.986-2.168,4.495-2.128
			c0.758,0.03,1.556,0.218,2.453,0.539c0.448,0.159,0.922,0.354,1.426,0.577c0.503,0.216,1.043,0.481,1.625,0.791
			c2.372,1.253,4.134,1.83,5.899,2.084c1.029,0.137,2.033,0.056,3.067-0.135c1.036-0.179,2.088-0.541,3.192-1.091
			c0.624-0.324,0.921-1.08,0.629-1.783C87.082,14.393,86.308,14.09,85.658,14.41z"/>
		<path d="M87.111,10.351c-0.919-0.65-1.773-1.147-2.613-1.547c-0.841-0.398-1.666-0.688-2.519-0.848
			c-1.12-0.234-2.21-0.118-3.348,0.187c-0.567,0.159-1.144,0.379-1.733,0.662c-0.592,0.275-1.18,0.679-1.795,1.113
			c-0.627,0.453-0.755,1.305-0.305,1.907c0.452,0.602,1.298,0.729,1.904,0.282c1.839-1.297,3.271-1.691,4.746-1.486
			c1.489,0.269,3.063,1.211,5.181,2.658c0.345,0.249,0.678,0.483,0.999,0.7"/>
		<path d="M86.246,4.277c0,0-0.107,0.014-0.309,0.04c-0.199,0.029-0.496,0.054-0.867,0.121c-0.744,0.133-1.807,0.322-3.081,0.549
			c-1.281,0.201-2.75,0.558-4.328,0.922c-0.786,0.195-1.61,0.344-2.425,0.593c-0.818,0.232-1.649,0.468-2.48,0.703
			c-3.319,0.957-6.57,2.139-8.969,3.118c-0.601,0.242-1.158,0.447-1.64,0.66c-0.479,0.216-0.898,0.404-1.242,0.561
			c-0.688,0.311-1.082,0.488-1.082,0.488l-0.753-1.646c0,0,0.4-0.182,1.103-0.499c0.351-0.157,0.776-0.35,1.265-0.569
			c0.491-0.217,1.06-0.427,1.671-0.674c2.443-0.998,5.756-2.201,9.139-3.177c0.846-0.239,1.693-0.479,2.527-0.716
			c0.828-0.253,1.669-0.406,2.47-0.604c1.607-0.371,3.104-0.733,4.409-0.938c1.299-0.231,2.381-0.424,3.14-0.559
			c0.379-0.069,0.68-0.094,0.884-0.125c0.205-0.026,0.313-0.04,0.313-0.04L86.246,4.277z"/>
		<path d="M88.471,19.883c0,0-0.09,0.012-0.258,0.032c-0.167,0.025-0.416,0.042-0.727,0.101c-0.622,0.112-1.511,0.271-2.577,0.462
			c-1.073,0.162-2.299,0.469-3.618,0.771c-0.657,0.164-1.35,0.28-2.028,0.493c-0.683,0.194-1.377,0.393-2.071,0.59
			c-2.775,0.799-5.493,1.786-7.497,2.605c-0.502,0.203-0.97,0.37-1.372,0.55c-0.401,0.182-0.75,0.34-1.037,0.471
			c-0.576,0.26-0.905,0.409-0.905,0.409l0.754,1.647c0,0,0.321-0.146,0.884-0.4c0.281-0.127,0.623-0.282,1.014-0.46
			c0.394-0.175,0.851-0.339,1.342-0.536c1.959-0.802,4.615-1.768,7.327-2.548c0.68-0.193,1.357-0.387,2.026-0.576
			c0.663-0.209,1.34-0.321,1.981-0.481c1.289-0.297,2.488-0.598,3.536-0.754c1.043-0.188,1.911-0.343,2.519-0.452
			c0.305-0.058,0.548-0.074,0.711-0.099c0.165-0.021,0.252-0.031,0.252-0.031L88.471,19.883z"/>
	</g>
	<g>
		<path d="M87.628,13.973c0.853,0.574,1.63,1.032,2.374,1.387c0.743,0.354,1.453,0.598,2.173,0.815
			c1.001,0.28,2.011,0.383,3.061,0.306c1.051-0.068,2.147-0.23,3.318-0.618c0.666-0.214,1.063-0.974,0.873-1.693
			c-0.188-0.718-0.913-1.126-1.602-0.911c-0.961,0.311-1.837,0.442-2.665,0.507c-0.827,0.066-1.61-0.007-2.389-0.218
			c-0.688-0.177-1.387-0.5-2.139-0.889c-0.751-0.391-1.562-0.912-2.488-1.585c-0.357-0.253-0.7-0.494-1.034-0.73"/>
		<path d="M110.358,13.847c-0.497,0.076-0.968,0.121-1.417,0.134c-0.45,0.025-0.88,0.038-1.295,0.005
			c-0.826-0.059-1.591-0.25-2.33-0.575c-0.654-0.302-1.303-0.665-1.99-1.161c-0.689-0.501-1.416-1.139-2.238-1.944
			c-1.012-1.007-1.94-1.801-2.856-2.466c-0.918-0.662-1.822-1.176-2.793-1.516c-1.071-0.349-2.168-0.424-3.337-0.286
			c-0.584,0.074-1.187,0.199-1.811,0.399c-0.621,0.222-1.265,0.506-1.935,0.852c-0.688,0.354-0.938,1.176-0.58,1.837
			c0.359,0.663,1.179,0.917,1.845,0.566c4.019-2.011,5.858-0.937,9.652,2.596c0.48,0.434,0.937,0.846,1.377,1.241
			c0.438,0.383,0.861,0.722,1.273,1.021c0.825,0.6,1.618,1.042,2.431,1.367c1.899,0.88,3.938,0.956,6.352,0.616
			c0.688-0.11,1.19-0.8,1.104-1.54C111.728,14.253,111.067,13.739,110.358,13.847z"/>
		<path d="M112.889,10.351c-0.705-0.842-1.384-1.583-2.078-2.215c-0.692-0.636-1.4-1.164-2.179-1.518
			c-1.016-0.482-2.087-0.74-3.263-0.773c-1.177-0.028-2.46,0.259-3.882,0.729c-0.728,0.247-1.09,1.022-0.827,1.731
			c0.263,0.71,1.039,1.084,1.746,0.836c1.063-0.358,1.97-0.592,2.775-0.581c0.806,0.003,1.515,0.167,2.194,0.491
			c0.679,0.329,1.331,0.799,2.016,1.464c0.683,0.682,1.401,1.527,2.213,2.539c0.262,0.327,0.519,0.636,0.768,0.925"/>
		<path d="M113.755,4.277c0,0-0.429-0.055-1.178-0.15c-0.748-0.087-1.817-0.25-3.105-0.372c-1.29-0.099-2.796-0.213-4.408-0.335
			c-1.616-0.042-3.34-0.088-5.063-0.132c-1.724,0.044-3.447,0.09-5.063,0.132c-1.613,0.122-3.118,0.236-4.408,0.335
			c-1.288,0.122-2.356,0.285-3.106,0.372c-0.749,0.096-1.177,0.15-1.177,0.15L85.99,2.484c0,0,0.437-0.056,1.199-0.153
			c0.765-0.089,1.853-0.254,3.164-0.379c1.314-0.1,2.848-0.216,4.491-0.341c1.646-0.043,3.4-0.089,5.156-0.135
			c1.754,0.046,3.51,0.092,5.155,0.135c1.643,0.125,3.177,0.241,4.49,0.341c1.313,0.125,2.4,0.29,3.165,0.379
			c0.763,0.098,1.198,0.153,1.198,0.153L113.755,4.277z"/>
		<path d="M111.53,19.883c0,0-0.357-0.045-0.985-0.124c-0.629-0.071-1.522-0.213-2.601-0.315c-1.082-0.082-2.343-0.178-3.694-0.281
			c-1.356-0.035-2.803-0.073-4.249-0.111c-1.447,0.038-2.895,0.076-4.251,0.111c-1.351,0.104-2.613,0.199-3.694,0.281
			c-1.078,0.103-1.972,0.244-2.6,0.315c-0.628,0.079-0.985,0.124-0.985,0.124l0.255,1.794c0,0,0.351-0.045,0.964-0.121
			c0.614-0.069,1.487-0.209,2.542-0.309c1.058-0.081,2.291-0.175,3.612-0.275c1.327-0.035,2.742-0.072,4.157-0.109
			c1.414,0.037,2.829,0.074,4.155,0.109c1.321,0.101,2.555,0.194,3.612,0.275c1.056,0.1,1.928,0.239,2.542,0.309
			c0.614,0.076,0.965,0.121,0.965,0.121L111.53,19.883z"/>
	</g>
	<g>
		<path d="M112.373,13.973c0.663,0.751,1.278,1.431,1.891,1.995c0.613,0.563,1.222,1.018,1.858,1.391
			c0.895,0.493,1.819,0.936,2.847,1.165c1.024,0.238,2.142,0.306,3.359,0.317c0.694-0.007,1.286-0.617,1.308-1.364
			c0.021-0.745-0.556-1.352-1.271-1.352c-0.252,0.001-0.495-0.007-0.73-0.019c-0.239-0.001-0.471-0.01-0.697-0.025
			c-0.451-0.032-0.875-0.094-1.279-0.186c-0.811-0.182-1.537-0.49-2.223-0.919c-1.228-0.701-2.356-1.828-3.752-3.669
			c-0.274-0.334-0.536-0.653-0.792-0.965"/>
		<path d="M134.217,20.226c-0.992-0.145-1.876-0.306-2.646-0.616c-0.776-0.294-1.442-0.727-2.065-1.225
			c-1.115-0.869-2.057-2.177-3.183-4.175c-0.702-1.199-1.361-2.255-2.052-3.162c-0.346-0.453-0.698-0.876-1.07-1.25
			c-0.376-0.36-0.771-0.683-1.191-0.967c-0.934-0.627-1.958-1.051-3.119-1.25c-1.168-0.155-2.473-0.1-3.949,0.163
			c-0.756,0.126-1.229,0.862-1.068,1.592c0.161,0.733,0.872,1.227,1.609,1.088c1.104-0.205,2.028-0.268,2.832-0.182
			c0.799,0.11,1.475,0.389,2.1,0.81c0.625,0.423,1.198,1,1.783,1.742c0.583,0.75,1.165,1.715,1.821,2.831
			c0.664,1.157,1.298,2.058,1.913,2.89c0.618,0.821,1.246,1.481,1.93,2.032c0.811,0.625,1.673,1.171,2.648,1.563
			c0.973,0.397,2.076,0.607,3.277,0.8c0.687,0.095,1.361-0.42,1.489-1.156C135.408,21.018,134.926,20.332,134.217,20.226z"/>
		<path d="M137.626,17.611c-0.435-1.016-0.871-1.927-1.356-2.736c-0.484-0.802-1.036-1.462-1.671-2.051
			c-0.417-0.38-0.862-0.711-1.343-0.995c-0.479-0.288-0.999-0.52-1.569-0.674c-1.133-0.326-2.428-0.467-3.925-0.423
			c-0.775,0.055-1.345,0.707-1.29,1.453c0.027,0.373,0.204,0.698,0.468,0.922c0.261,0.229,0.604,0.376,0.979,0.36
			c2.238-0.07,3.689,0.271,4.792,1.324c1.106,1.035,1.958,2.589,2.921,5.039c0.158,0.392,0.313,0.763,0.471,1.112"/>
		<path d="M140.179,12.032c0,0-0.395-0.178-1.084-0.488c-0.344-0.156-0.763-0.345-1.241-0.561c-0.482-0.213-1.04-0.418-1.641-0.66
			c-2.397-0.979-5.648-2.161-8.968-3.118c-0.832-0.235-1.663-0.471-2.481-0.703c-0.813-0.249-1.639-0.397-2.424-0.593
			c-1.578-0.364-3.048-0.721-4.328-0.922c-1.276-0.227-2.338-0.416-3.081-0.549c-0.372-0.067-0.669-0.092-0.869-0.121
			c-0.199-0.026-0.307-0.04-0.307-0.04l0.255-1.793c0,0,0.109,0.014,0.314,0.04c0.203,0.031,0.504,0.056,0.885,0.125
			c0.756,0.135,1.839,0.327,3.138,0.559c1.304,0.205,2.802,0.567,4.41,0.938c0.8,0.198,1.642,0.352,2.47,0.604
			c0.834,0.236,1.68,0.477,2.526,0.716c3.382,0.976,6.695,2.179,9.139,3.177c0.612,0.247,1.181,0.457,1.671,0.674
			c0.488,0.22,0.915,0.412,1.266,0.569c0.703,0.317,1.102,0.499,1.102,0.499L140.179,12.032z"/>
		<path d="M133.62,26.367c0,0-0.329-0.149-0.903-0.409c-0.288-0.131-0.639-0.289-1.038-0.471c-0.402-0.18-0.87-0.347-1.373-0.55
			c-2.003-0.819-4.722-1.807-7.496-2.605c-0.694-0.197-1.388-0.396-2.072-0.59c-0.679-0.213-1.371-0.329-2.026-0.493
			c-1.321-0.303-2.547-0.609-3.62-0.771c-1.065-0.19-1.954-0.35-2.576-0.462c-0.31-0.059-0.56-0.075-0.727-0.101
			c-0.168-0.021-0.258-0.032-0.258-0.032l-0.255,1.794c0,0,0.087,0.011,0.252,0.031c0.162,0.024,0.406,0.041,0.71,0.099
			c0.608,0.109,1.477,0.265,2.519,0.452c1.048,0.156,2.247,0.457,3.536,0.754c0.644,0.16,1.319,0.272,1.982,0.481
			c0.668,0.189,1.347,0.383,2.026,0.576c2.711,0.78,5.367,1.746,7.327,2.548c0.49,0.197,0.947,0.361,1.341,0.536
			c0.391,0.178,0.733,0.333,1.014,0.46c0.563,0.255,0.885,0.4,0.885,0.4L133.62,26.367z"/>
	</g>
	<g>
		<path d="M136.104,20.938c0.409,0.94,0.838,1.702,1.258,2.431c0.424,0.72,0.877,1.335,1.378,1.878
			c0.351,0.379,0.727,0.722,1.133,1.029c0.396,0.323,0.816,0.625,1.271,0.887c0.455,0.266,0.942,0.497,1.468,0.699
			c0.526,0.199,1.087,0.374,1.667,0.554c0.667,0.194,1.407-0.221,1.64-0.933c0.232-0.709-0.147-1.459-0.835-1.665
			c-0.978-0.255-1.814-0.566-2.535-0.979c-0.723-0.408-1.321-0.929-1.879-1.497c-0.484-0.515-0.918-1.127-1.331-1.88
			c-0.412-0.753-0.795-1.664-1.226-2.701c-0.167-0.4-0.327-0.783-0.483-1.157"/>
		<path d="M155.297,33.106c-0.932-0.395-1.715-0.821-2.368-1.334c-0.657-0.507-1.175-1.108-1.644-1.75
			c-0.406-0.58-0.746-1.247-1.046-2.053c-0.299-0.804-0.549-1.76-0.823-2.85c-0.332-1.354-0.663-2.559-1.065-3.629
			c-0.393-1.086-0.909-1.954-1.546-2.758c-1.406-1.781-3.485-2.718-6.463-3.056c-0.776-0.062-1.436,0.501-1.488,1.247
			c-0.054,0.749,0.51,1.379,1.245,1.475c2.223,0.262,3.613,0.804,4.551,2.006c0.943,1.188,1.561,2.845,2.16,5.409
			c0.312,1.294,0.642,2.372,1.022,3.307c0.358,0.967,0.771,1.781,1.271,2.507c0.293,0.426,0.616,0.818,0.972,1.182
			c0.346,0.378,0.718,0.736,1.132,1.062c0.412,0.327,0.861,0.627,1.35,0.903c0.495,0.271,1.022,0.526,1.573,0.787
			c0.63,0.288,1.421-0.016,1.752-0.687C156.215,34.207,155.946,33.409,155.297,33.106z"/>
		<path d="M159.3,31.563c-0.131-1.098-0.287-2.101-0.526-3.009c-0.254-0.889-0.583-1.694-1.027-2.435
			c-0.581-0.968-1.319-1.797-2.322-2.418c-0.997-0.629-2.175-1.165-3.648-1.509c-0.756-0.172-1.486,0.292-1.645,1.023
			c-0.163,0.741,0.313,1.436,1.032,1.626c4.341,1.119,5.046,3.124,5.6,8.286c0.041,0.422,0.086,0.823,0.137,1.204"/>
		<path d="M163.319,26.93c0,0-0.326-0.283-0.897-0.776c-0.287-0.245-0.627-0.553-1.035-0.885c-0.413-0.325-0.879-0.691-1.388-1.093
			c-1.02-0.798-2.19-1.751-3.526-2.667c-0.659-0.468-1.341-0.952-2.034-1.444c-0.691-0.492-1.434-0.936-2.155-1.408
			c-0.727-0.465-1.454-0.93-2.172-1.387c-0.735-0.425-1.46-0.842-2.161-1.246c-0.704-0.399-1.377-0.8-2.028-1.152
			c-0.66-0.339-1.284-0.659-1.861-0.955c-1.156-0.584-2.104-1.101-2.801-1.394c-0.688-0.312-1.081-0.49-1.081-0.49l0.751-1.646
			c0,0,0.401,0.181,1.103,0.499c0.709,0.299,1.678,0.825,2.855,1.419c0.587,0.302,1.222,0.629,1.895,0.974
			c0.665,0.359,1.352,0.767,2.066,1.174c0.716,0.412,1.453,0.837,2.204,1.271c0.73,0.465,1.469,0.938,2.21,1.411
			c0.736,0.482,1.492,0.935,2.197,1.436s1.399,0.994,2.071,1.472c1.36,0.934,2.554,1.903,3.594,2.716
			c0.517,0.408,0.99,0.782,1.412,1.114c0.416,0.338,0.763,0.651,1.056,0.899c0.581,0.504,0.913,0.792,0.913,0.792L163.319,26.93z"/>
		<path d="M152.992,38.838c0,0-0.273-0.236-0.752-0.651c-0.241-0.204-0.523-0.465-0.866-0.742c-0.346-0.271-0.736-0.578-1.164-0.912
			c-0.854-0.668-1.831-1.473-2.953-2.234c-0.552-0.393-1.122-0.799-1.702-1.212c-0.578-0.414-1.203-0.779-1.807-1.177
			c-0.607-0.39-1.216-0.78-1.815-1.164c-0.615-0.354-1.223-0.702-1.811-1.039c-0.589-0.334-1.148-0.673-1.696-0.968
			c-0.552-0.282-1.075-0.55-1.558-0.796c-0.968-0.486-1.758-0.927-2.343-1.167c-0.576-0.26-0.905-0.408-0.905-0.408l-0.753,1.647
			c0,0,0.321,0.146,0.885,0.399c0.571,0.233,1.344,0.665,2.289,1.141c0.473,0.24,0.983,0.502,1.524,0.777
			c0.533,0.288,1.081,0.62,1.658,0.946c0.573,0.33,1.166,0.67,1.771,1.015c0.584,0.376,1.18,0.758,1.773,1.14
			c0.59,0.388,1.201,0.744,1.767,1.149c0.566,0.404,1.123,0.802,1.663,1.186c1.098,0.744,2.053,1.532,2.889,2.185
			c0.417,0.326,0.799,0.626,1.139,0.892c0.334,0.271,0.61,0.525,0.846,0.727c0.468,0.405,0.733,0.637,0.733,0.637L152.992,38.838z"
			/>
	</g>
	<g>
		<path d="M156.902,34.328c0.131,1.014,0.311,1.884,0.527,2.682c0.204,0.812,0.464,1.53,0.79,2.195
			c0.46,0.926,1.065,1.733,1.774,2.513c0.713,0.774,1.626,1.428,2.658,2.083c0.586,0.374,1.409,0.185,1.833-0.434
			c0.421-0.614,0.275-1.448-0.333-1.831c-0.874-0.515-1.584-1.056-2.158-1.653c-0.287-0.3-0.541-0.613-0.765-0.944
			c-0.23-0.326-0.444-0.656-0.622-1.016c-0.32-0.633-0.562-1.344-0.744-2.185c-0.092-0.421-0.167-0.874-0.23-1.367
			c-0.075-0.48-0.139-0.998-0.192-1.564c-0.047-0.432-0.092-0.846-0.135-1.249"/>
		<path d="M171.912,51.396c-0.79-0.634-1.414-1.27-1.898-1.944c-0.242-0.337-0.449-0.684-0.622-1.044
			c-0.177-0.357-0.345-0.712-0.469-1.095c-0.227-0.672-0.364-1.408-0.423-2.267c-0.031-0.429-0.04-0.888-0.034-1.385
			c0-0.49,0.009-1.01,0.037-1.578c0.063-1.395,0.085-2.645,0.002-3.787c-0.088-1.139-0.325-2.129-0.715-3.077
			c-0.847-2.104-2.576-3.588-5.345-4.741c-0.726-0.279-1.514,0.074-1.775,0.775c-0.268,0.711,0.105,1.464,0.786,1.76
			c4.139,1.729,4.548,3.813,4.354,9.003c-0.064,1.33-0.055,2.461,0.049,3.465c0.087,1.017,0.243,1.926,0.519,2.762
			c0.161,0.49,0.361,0.958,0.6,1.408c0.243,0.447,0.485,0.905,0.794,1.332c0.594,0.868,1.408,1.643,2.332,2.44
			c0.522,0.454,1.367,0.386,1.873-0.166C172.483,52.71,172.456,51.864,171.912,51.396z"/>
		<path d="M176.186,51.038c0.181-1.089,0.326-2.106,0.336-3.034c0.006-0.925-0.081-1.791-0.3-2.629
			c-0.142-0.547-0.335-1.068-0.585-1.567c-0.252-0.498-0.587-0.953-0.971-1.402c-0.384-0.446-0.827-0.874-1.335-1.289
			c-0.507-0.415-1.071-0.819-1.742-1.181c-0.677-0.377-1.507-0.138-1.864,0.521c-0.361,0.662-0.113,1.474,0.539,1.846
			c0.957,0.576,1.686,1.142,2.228,1.739c0.541,0.6,0.907,1.223,1.086,1.965c0.188,0.735,0.237,1.552,0.187,2.502
			c-0.049,0.948-0.189,2.026-0.449,3.319c-0.079,0.416-0.149,0.815-0.21,1.194"/>
		<path d="M181.344,47.716c0,0-0.233-0.362-0.642-0.998c-0.393-0.646-1.022-1.521-1.773-2.576c-0.375-0.526-0.783-1.098-1.213-1.702
			c-0.431-0.604-0.932-1.204-1.425-1.846c-0.502-0.635-1.018-1.292-1.543-1.96c-0.542-0.654-1.116-1.298-1.678-1.953
			c-0.569-0.648-1.12-1.313-1.698-1.936c-0.586-0.615-1.163-1.221-1.72-1.806c-0.564-0.579-1.084-1.166-1.626-1.67
			c-0.537-0.513-1.045-0.997-1.512-1.443c-0.47-0.446-0.899-0.854-1.279-1.218c-0.38-0.362-0.738-0.65-1.02-0.901
			c-0.57-0.495-0.896-0.777-0.896-0.777l1.187-1.368c0,0,0.332,0.287,0.913,0.791c0.287,0.256,0.651,0.55,1.038,0.92
			c0.389,0.368,0.825,0.785,1.304,1.239c0.477,0.455,0.993,0.948,1.538,1.47c0.554,0.515,1.082,1.112,1.658,1.702
			c0.569,0.596,1.155,1.213,1.753,1.84c0.587,0.633,1.148,1.311,1.728,1.97c0.573,0.668,1.157,1.324,1.71,1.99
			c0.533,0.681,1.062,1.35,1.57,1.997c0.505,0.652,1.015,1.265,1.453,1.88c0.438,0.616,0.853,1.197,1.234,1.734
			c0.766,1.075,1.408,1.966,1.808,2.624c0.417,0.647,0.654,1.017,0.654,1.017L181.344,47.716z"/>
		<path d="M168.091,56.251c0,0-0.196-0.305-0.535-0.837c-0.325-0.543-0.858-1.272-1.487-2.156c-0.314-0.441-0.653-0.921-1.013-1.427
			c-0.359-0.507-0.784-1.008-1.196-1.545c-0.419-0.532-0.851-1.084-1.29-1.643c-0.454-0.549-0.938-1.086-1.408-1.635
			c-0.478-0.543-0.936-1.104-1.42-1.624c-0.491-0.515-0.976-1.021-1.444-1.512c-0.475-0.483-0.902-0.98-1.361-1.4
			c-0.449-0.429-0.875-0.834-1.268-1.207c-0.393-0.375-0.751-0.718-1.069-1.022c-0.317-0.307-0.619-0.544-0.856-0.754
			c-0.478-0.414-0.75-0.651-0.75-0.651l-1.188,1.369c0,0,0.268,0.231,0.735,0.636c0.23,0.206,0.528,0.438,0.838,0.737
			c0.311,0.298,0.662,0.634,1.044,1c0.386,0.365,0.802,0.762,1.241,1.18c0.448,0.411,0.867,0.897,1.33,1.37
			c0.459,0.479,0.931,0.975,1.412,1.478c0.474,0.51,0.921,1.058,1.389,1.588c0.46,0.537,0.934,1.063,1.376,1.599
			c0.43,0.547,0.853,1.085,1.261,1.606c0.403,0.525,0.82,1.014,1.171,1.51c0.351,0.495,0.683,0.963,0.989,1.396
			c0.616,0.863,1.137,1.576,1.454,2.108c0.333,0.521,0.523,0.817,0.523,0.817L168.091,56.251z"/>
	</g>
	<g>
		<path d="M173.111,53.019c-0.159,1.009-0.242,1.9-0.246,2.721c-0.027,0.834,0.013,1.601,0.14,2.33
			c0.391,2.019,1.283,3.85,2.967,5.65c0.452,0.523,1.298,0.575,1.877,0.1c0.572-0.468,0.689-1.319,0.188-1.846
			c-0.69-0.74-1.216-1.46-1.597-2.197c-0.194-0.366-0.34-0.744-0.473-1.119c-0.138-0.372-0.24-0.753-0.313-1.148
			c-0.27-1.389-0.088-3.021,0.315-5.237c0.078-0.429,0.151-0.838,0.224-1.238"/>
		<path d="M182.695,73.619c-1.162-1.66-1.618-3.171-1.709-4.761c-0.062-1.415,0.352-3,1.073-5.137
			c0.457-1.322,0.833-2.517,1.078-3.638c0.211-1.106,0.283-2.135,0.173-3.152c-0.063-0.562-0.178-1.105-0.354-1.637
			c-0.177-0.53-0.446-1.028-0.758-1.527c-0.317-0.498-0.695-0.985-1.139-1.469c-0.443-0.482-0.941-0.966-1.553-1.419
			c-0.617-0.473-1.473-0.355-1.922,0.245c-0.454,0.604-0.32,1.441,0.267,1.905c0.865,0.709,1.507,1.373,1.957,2.043
			c0.449,0.671,0.722,1.341,0.791,2.102c0.08,0.753,0.012,1.568-0.176,2.501c-0.186,0.933-0.479,1.978-0.925,3.22
			c-0.439,1.261-0.75,2.35-0.937,3.343c-0.175,0.988-0.309,1.915-0.275,2.792c0.095,2.053,0.704,3.993,2.118,6.016
			c0.369,0.584,1.196,0.758,1.839,0.372C182.881,75.037,183.12,74.212,182.695,73.619z"/>
		<path d="M186.908,74.48c1.015-2.004,1.56-3.686,1.636-5.422c0.016-0.564-0.006-1.126-0.121-1.67
			c-0.118-0.542-0.297-1.08-0.539-1.618c-0.495-1.07-1.177-2.168-2.259-3.239c-0.542-0.554-1.404-0.559-1.935-0.027
			c-0.53,0.533-0.532,1.388,0,1.924c1.515,1.646,2.162,2.985,2.141,4.487c-0.07,1.52-0.723,3.192-1.895,5.51
			c-0.197,0.377-0.379,0.74-0.546,1.088"/>
		<path d="M192.794,72.756c0,0-0.118-0.416-0.325-1.142c-0.208-0.728-0.575-1.743-0.984-2.973c-0.209-0.613-0.436-1.277-0.676-1.979
			c-0.272-0.69-0.56-1.419-0.854-2.173c-0.301-0.752-0.598-1.534-0.927-2.317c-0.351-0.775-0.705-1.563-1.06-2.35
			c-0.684-1.588-1.489-3.115-2.229-4.556c-0.712-1.456-1.502-2.745-2.141-3.872c-0.323-0.561-0.619-1.075-0.881-1.53
			c-0.284-0.443-0.53-0.83-0.733-1.148c-0.407-0.636-0.641-1-0.641-1l1.523-0.98c0,0,0.237,0.371,0.651,1.019
			c0.207,0.324,0.459,0.718,0.746,1.17c0.268,0.464,0.57,0.988,0.899,1.56c0.649,1.147,1.454,2.462,2.18,3.943
			c0.754,1.468,1.575,3.025,2.271,4.643c0.361,0.802,0.723,1.604,1.079,2.394c0.335,0.798,0.637,1.596,0.944,2.361
			c0.302,0.768,0.593,1.51,0.869,2.214c0.246,0.716,0.477,1.392,0.691,2.017c0.416,1.252,0.79,2.288,1.001,3.027
			c0.212,0.741,0.333,1.164,0.333,1.164L192.794,72.756z"/>
		<path d="M177.668,77.19c0,0-0.099-0.348-0.271-0.955c-0.171-0.609-0.484-1.456-0.825-2.484c-0.174-0.512-0.361-1.067-0.562-1.655
			c-0.228-0.576-0.469-1.185-0.719-1.814c-0.252-0.628-0.495-1.284-0.771-1.939c-0.293-0.647-0.591-1.305-0.89-1.963
			c-0.564-1.33-1.247-2.604-1.863-3.811c-0.589-1.221-1.258-2.295-1.79-3.239c-0.269-0.47-0.516-0.9-0.735-1.282
			c-0.237-0.371-0.445-0.694-0.615-0.959c-0.342-0.533-0.537-0.837-0.537-0.837l-1.523,0.98c0,0,0.191,0.298,0.525,0.817
			c0.166,0.26,0.368,0.576,0.603,0.938c0.214,0.373,0.455,0.795,0.717,1.254c0.52,0.924,1.176,1.973,1.752,3.167
			c0.602,1.178,1.269,2.424,1.821,3.725c0.292,0.643,0.583,1.285,0.87,1.918c0.269,0.641,0.506,1.282,0.753,1.896
			c0.243,0.616,0.479,1.21,0.702,1.774c0.194,0.574,0.378,1.116,0.548,1.618c0.331,1.006,0.642,1.833,0.807,2.427
			c0.168,0.595,0.265,0.935,0.265,0.935L177.668,77.19z"/>
	</g>
	<g>
		<path d="M183.397,75.511c-0.891,1.849-1.317,3.329-1.531,4.813c-0.134,1.029-0.063,2.036,0.142,3.067
			c0.18,1.038,0.542,2.089,1.091,3.193c0.323,0.625,1.098,0.916,1.794,0.625c0.706-0.292,0.988-1.063,0.675-1.714
			c-0.442-0.907-0.734-1.748-0.884-2.563c-0.156-0.815-0.226-1.594-0.126-2.395c0.081-0.706,0.269-1.437,0.577-2.243
			c0.301-0.806,0.678-1.677,1.211-2.689c0.196-0.39,0.387-0.763,0.57-1.127"/>
		<path d="M186.739,97.986c-0.307-0.962-0.451-1.837-0.499-2.666c-0.068-0.827,0.006-1.608,0.217-2.387
			c0.182-0.688,0.491-1.385,0.896-2.136c0.392-0.751,0.915-1.561,1.587-2.487c1.685-2.285,2.748-4.141,3.135-6.157
			c0.23-1.119,0.133-2.213-0.179-3.349c-0.323-1.134-0.857-2.313-1.768-3.531c-0.453-0.63-1.306-0.76-1.907-0.311
			c-0.603,0.45-0.731,1.296-0.284,1.904c1.28,1.844,1.689,3.272,1.479,4.749c-0.288,1.491-1.209,3.058-2.677,5.175
			c-0.788,1.086-1.406,2.044-1.876,2.944c-0.466,0.9-0.775,1.743-1.034,2.599c-0.279,1-0.383,2.008-0.306,3.059
			c0.052,1.051,0.227,2.146,0.612,3.318c0.212,0.665,0.971,1.065,1.69,0.876C186.543,99.399,186.952,98.675,186.739,97.986z"/>
		<path d="M190.577,100c1.452-1.637,2.523-3.097,3.095-4.739c0.332-1.071,0.421-2.169,0.278-3.337
			c-0.077-0.583-0.189-1.188-0.407-1.809c-0.223-0.621-0.505-1.266-0.852-1.935c-0.354-0.686-1.175-0.936-1.838-0.575
			c-0.662,0.361-0.916,1.181-0.563,1.846c2.018,4.013,0.949,5.858-2.579,9.658c-0.284,0.307-0.551,0.604-0.799,0.891"/>
		<path d="M196.712,100c0,0-0.043-1.724-0.107-4.31c-0.003-0.646-0.072-1.345-0.124-2.084c-0.056-0.739-0.116-1.52-0.178-2.325
			c-0.031-0.403-0.064-0.813-0.098-1.229c-0.052-0.412-0.104-0.831-0.157-1.252c-0.108-0.844-0.217-1.699-0.326-2.556
			c-0.093-0.858-0.254-1.707-0.403-2.544s-0.298-1.66-0.439-2.457c-0.128-0.8-0.328-1.558-0.488-2.282
			c-0.167-0.724-0.325-1.406-0.471-2.038c-0.271-1.268-0.606-2.296-0.801-3.026c-0.207-0.727-0.325-1.142-0.325-1.142l1.739-0.51
			c0,0,0.12,0.423,0.33,1.164c0.198,0.743,0.54,1.792,0.815,3.083c0.148,0.643,0.31,1.34,0.479,2.076
			c0.164,0.738,0.367,1.511,0.497,2.326c0.146,0.811,0.297,1.649,0.449,2.502c0.151,0.853,0.315,1.718,0.411,2.592
			c0.11,0.872,0.222,1.745,0.331,2.604c0.053,0.43,0.106,0.855,0.159,1.276c0.034,0.422,0.068,0.84,0.1,1.25
			c0.064,0.821,0.124,1.615,0.183,2.368c0.054,0.754,0.122,1.465,0.126,2.124c0.064,2.633,0.108,4.389,0.108,4.389H196.712z"/>
		<path d="M180.948,100c0,0-0.035-1.447-0.092-3.618c0.001-0.543-0.062-1.127-0.106-1.747c-0.048-0.619-0.097-1.272-0.147-1.948
			c-0.026-0.338-0.053-0.682-0.079-1.029c-0.045-0.346-0.09-0.696-0.135-1.049c-0.09-0.706-0.181-1.422-0.271-2.139
			c-0.074-0.72-0.214-1.429-0.34-2.128c-0.124-0.7-0.247-1.39-0.365-2.056c-0.103-0.671-0.276-1.303-0.41-1.908
			c-0.139-0.604-0.271-1.177-0.394-1.704c-0.218-1.062-0.508-1.918-0.67-2.529c-0.171-0.607-0.271-0.954-0.271-0.954l-1.738,0.51
			c0,0,0.096,0.339,0.265,0.933c0.158,0.598,0.442,1.435,0.655,2.473c0.118,0.516,0.247,1.074,0.383,1.665
			c0.131,0.593,0.303,1.21,0.401,1.865c0.116,0.651,0.236,1.324,0.358,2.009c0.122,0.684,0.26,1.377,0.331,2.08
			c0.089,0.702,0.178,1.402,0.265,2.092c0.045,0.345,0.09,0.687,0.133,1.024c0.027,0.34,0.053,0.676,0.079,1.007
			c0.049,0.661,0.097,1.3,0.143,1.905c0.045,0.606,0.106,1.178,0.104,1.709c0.054,2.123,0.09,3.538,0.09,3.538H180.948z"/>
	</g>
</g>
<line fill="#ED1C24" stroke="#ED1C24" stroke-width="4" stroke-miterlimit="10" x1="8.554" y1="191.445" x2="191.446" y2="8.554"/>
</svg>
