<?xml version="1.0" encoding="utf-8"?>
<!-- Generator: Adobe Illustrator 16.0.0, SVG Export Plug-In . SVG Version: 6.00 Build 0)  -->
<!DOCTYPE svg PUBLIC "-//W3C//DTD SVG 1.1//EN" "http://www.w3.org/Graphics/SVG/1.1/DTD/svg11.dtd">
<svg version="1.1" id="Layer_1" xmlns="http://www.w3.org/2000/svg" xmlns:xlink="http://www.w3.org/1999/xlink" x="0px" y="0px"
	 width="200px" height="200px" viewBox="0 0 200 200" enable-background="new 0 0 200 200" xml:space="preserve">
<path d="M177.439,152.089c0,43.792-55.473,47.447-78.266,47.369c-22.532-0.094-76.613-2.184-76.613-47.369
	c0-39.832,23.824-57.186,24.057-76.825c0.162-13.626-1.539-31.632-1.539-45.258c0-17.359,25.253-29.465,53.678-29.465
	c11.734,0-2.349,29.46,6.744,32.584c4.535,1.559,15.554,2.243,26.75-1.125c6.978-2.099,12.75-7.25,17.5-6.25
	c5.074,1.068,5.053,3.81,5.053,9.25c0,14.442-1.137,26.938-0.371,41.349C155.41,95.12,177.439,114.206,177.439,152.089z"/>
</svg>
