<?xml version="1.0" encoding="utf-8"?>
<!-- Generator: Adobe Illustrator 16.0.0, SVG Export Plug-In . SVG Version: 6.00 Build 0)  -->
<!DOCTYPE svg PUBLIC "-//W3C//DTD SVG 1.1//EN" "http://www.w3.org/Graphics/SVG/1.1/DTD/svg11.dtd">
<svg version="1.1" id="Layer_1" xmlns="http://www.w3.org/2000/svg" xmlns:xlink="http://www.w3.org/1999/xlink" x="0px" y="0px"
	 width="25px" height="25px" viewBox="0 0 25 25" enable-background="new 0 0 25 25" xml:space="preserve">
<path fill-rule="evenodd" clip-rule="evenodd" d="M0.38,6.932c1.125,0.123,2.251,0.246,3.376,0.369
	C3.8,7.305,3.843,7.318,3.886,7.324c0.402,0.05,0.399,0.05,0.339-0.361C4.122,6.26,4.022,5.555,3.911,4.779
	c0.385,0.236,0.708,0.436,1.115,0.686C4.8,3.599,4.239,1.856,4.18,0.002C5.637,1.383,7.064,2.777,9.014,3.48
	C9.036,3.1,8.915,2.754,8.981,2.378c0.494,0.179,0.976,0.353,1.495,0.54c-0.09-0.645-0.174-1.251-0.257-1.856
	c-0.032-0.078-0.049-0.148,0.076-0.144c0.337,0.379,0.655,0.775,1.014,1.132c1.012,1.005,1.248,0.952,2.241,0.163
	c0.439-0.348,0.705-0.842,1.037-1.277c0.165-0.215,0.317-0.438,0.554-0.633c-0.115,0.86-0.23,1.721-0.351,2.62
	c0.523-0.19,1.006-0.366,1.505-0.548c0.059,0.364-0.04,0.698-0.029,1.067c1.836-0.71,3.352-1.818,4.628-3.362
	c0.217,1.783,0.132,3.455-0.353,5.133c0.316-0.035,0.496-0.297,0.79-0.383c0.025,0.422-0.104,0.81-0.143,1.206
	c-0.033,0.339-0.089,0.677-0.163,1.009c-0.062,0.275,0.044,0.318,0.285,0.288c1.037-0.129,2.075-0.248,3.112-0.37
	c0.104-0.012,0.21-0.014,0.341,0.038c-0.394,0.31-0.782,0.624-1.182,0.927c-0.491,0.373-0.983,0.744-1.488,1.099
	c-0.446,0.313-0.598,0.741-0.635,1.271c-0.073,1.028,0.201,1.983,0.511,2.938c0.202,0.617,0.374,1.241,0.461,1.889
	c0.096,0.719-0.047,1.414-0.161,2.199c-0.625-0.814-1.233-1.536-2.271-1.738c0.141,0.548,0.276,1.074,0.424,1.649
	c-0.451-0.09-0.862-0.173-1.338-0.268c0.42,1.112,0.187,2.193,0.093,3.355c-0.288-0.408-0.532-0.756-0.778-1.1
	c-0.238-0.331-0.551-0.564-0.93-0.716c-0.155-0.063-0.28-0.06-0.266,0.13c0.04,0.541-0.348,0.759-0.728,0.948
	c-0.634,0.314-0.939,0.796-1.043,1.499c-0.128,0.858-0.383,1.694-0.555,2.546c-0.062,0.303-0.207,0.522-0.426,0.719
	c-1.009,0.904-2.779,0.855-3.744-0.104c-0.152-0.151-0.248-0.321-0.293-0.539c-0.238-1.106-0.492-2.21-0.735-3.315
	c-0.038-0.171-0.113-0.296-0.267-0.39c-0.319-0.196-0.619-0.426-0.941-0.615c-0.241-0.142-0.354-0.326-0.376-0.605
	c-0.03-0.374-0.123-0.412-0.456-0.23c-0.296,0.16-0.508,0.419-0.734,0.659c-0.247,0.262-0.484,0.53-0.754,0.83
	c-0.106-0.578-0.219-1.1-0.231-1.638c-0.012-0.543,0.103-1.064,0.293-1.611c-0.488,0.239-0.928,0.454-1.427,0.699
	c0.174-0.672,0.333-1.282,0.494-1.905c-1.145,0.151-1.685,1.021-2.287,1.842c-0.333-1.719-0.119-3.359,0.315-4.985
	c0.21-0.785,0.412-1.571,0.608-2.359c0.057-0.227-0.082-0.404-0.213-0.565C3.317,9.041,2.829,8.68,2.322,8.346
	c-0.69-0.453-1.389-0.893-2.084-1.339C0.232,6.881,0.307,6.908,0.38,6.932z"/>
</svg>
