<?xml version="1.0" encoding="utf-8"?>
<!-- Generator: Adobe Illustrator 16.0.0, SVG Export Plug-In . SVG Version: 6.00 Build 0)  -->
<!DOCTYPE svg PUBLIC "-//W3C//DTD SVG 1.1//EN" "http://www.w3.org/Graphics/SVG/1.1/DTD/svg11.dtd">
<svg version="1.1" id="Layer_1" xmlns="http://www.w3.org/2000/svg" xmlns:xlink="http://www.w3.org/1999/xlink" x="0px" y="0px"
	 width="200px" height="200px" viewBox="0 0 200 200" enable-background="new 0 0 200 200" xml:space="preserve">
<path fill="#010101" d="M175.253,152.09c0,37.361-53.09,47.447-75.883,47.369c-22.532-0.094-74.623-7.9-74.623-47.369
	c0-48.672,29.765-57.186,29.998-76.826c0.162-13.626-9.47-31.632-9.47-45.258c0-17.359,25.253-29.465,53.678-29.465
	c15.229,0,0.453,25.08,9.923,30.193c2.921,1.578,11.459,3.38,20.874,1.385c9.078-1.924,13.313-14.994,11.25-20.869
	c-0.325-0.927,7.5,4.625,9.646,10.419c1.671,4.513,1.27,8.804,1.27,11.331c0,14.442-7.4,28.938-6.635,43.349
	C146.259,95.121,175.253,114.207,175.253,152.09z"/>
</svg>
