<?xml version="1.0" encoding="utf-8"?>
<!-- Generator: Adobe Illustrator 16.0.0, SVG Export Plug-In . SVG Version: 6.00 Build 0)  -->
<!DOCTYPE svg PUBLIC "-//W3C//DTD SVG 1.1//EN" "http://www.w3.org/Graphics/SVG/1.1/DTD/svg11.dtd">
<svg version="1.1" id="Layer_1" xmlns="http://www.w3.org/2000/svg" xmlns:xlink="http://www.w3.org/1999/xlink" x="0px" y="0px"
	 width="200px" height="200px" viewBox="0 0 200 200" enable-background="new 0 0 200 200" xml:space="preserve">
<g>
	<path stroke="#000000" stroke-miterlimit="10" d="M188.947,106.406C154.833,97.5,122.667,124.08,100,124
		c-22.388-0.079-49.5-24.833-87.727-18c0,0-3.196-10.534-3.273-14.25c-0.081-3.938,2.833-15.25,2.833-15.25h176.334
		c0,0,2.747,11.313,2.833,15.25C191.082,95.511,188.947,106.406,188.947,106.406z"/>
	<g>
		<circle fill="#FFFFFF" cx="67.583" cy="98.5" r="4.75"/>
		<circle fill="#FFFFFF" cx="80.583" cy="98.584" r="4.75"/>
		<circle fill="#FFFFFF" cx="93.583" cy="98.5" r="4.75"/>
		<circle fill="#FFFFFF" cx="106.584" cy="98.5" r="4.75"/>
		<circle fill="#FFFFFF" cx="118.584" cy="98.5" r="4.75"/>
		<circle fill="#FFFFFF" cx="131.584" cy="98.5" r="4.75"/>
		<polygon fill="#FFFFFF" points="142,84.5 57,88.5 57,85.5 142,81.5 		"/>
	</g>
</g>
</svg>
